<svg xmlns="http://www.w3.org/2000/svg" width="79" height="25" fill="none">
  <path fill="currentColor" fill-rule="evenodd" d="m15.096 5.896.013.011.138.115.11.092.488.405v11.338a667 667 0 0 1-7.843 6.378c-.167-.017-4.5-3.58-6.7-5.39l-.062-.051c-.564-.464-.979-.805-1.132-.929L.1 6.525 7.936.106c.255.036 5.147 4.113 7.16 5.791m-3.384 2.316-.009-.014-.001-.002-.012-.02c-1.288-2.084-3.544-5.733-3.737-5.872L3.406 9.549l.01 5.029.915 1.5q.6.087 1.209.188c.822.132 1.649.266 2.465.334l.493-.074.595-.09c.84-.127 1.68-.254 2.523-.366l.917-1.425v-5.11c-.11-.172-.416-.667-.82-1.323m1.16 1.93c.32.4.595.891.861 1.366q.115.206.23.405l.113.193-.152.25-.16.257q-.206.336-.417.67l-.484.785q0-.567-.006-1.134a68 68 0 0 1 .015-2.791m-3.628-8.62C8.868 1.19 8.407.785 8.13.667l.009.372q.01.438.016.877 2.166 3.496 4.369 6.97c0-.071-.004-.183-.008-.32v-.022c-.017-.652-.049-1.84.118-2.014l.014-.013.012-.01.013-.01.147.064c.113.515.086 1.32.061 2.036v.01l-.002.044c-.01.299-.018.58-.016.817q.29.484.59.966c.344.557.688 1.116 1.008 1.686l-1.595 2.561.004 1.642v1.264l2.645.001-.006-10.909a318 318 0 0 0-5.874-4.823l-.061-.05-.056-.047q-.124-.107-.274-.239M7.75.688l.038.032c.077.227.055.577.037.88a7 7 0 0 0-.014.307L3.397 8.951q.001-.164.008-.343L3.41 8.5l.01-.213c.022-.533.046-1.104-.013-1.552-.017-.125-.054-.17-.151-.244l-.103.02c-.154.24-.11 1.725-.086 2.534l.008.25.003.18q-.795 1.299-1.567 2.61l1.57 2.575-.006 1.473-.005 1.458-2.638-.004.01-10.9c1.572-1.355 3.192-2.663 4.81-3.97Q6.508 1.706 7.75.69M6.056 16.672c-.496-.089-.992-.177-1.485-.217l.381.612a219 219 0 0 1 3.01 4.926q.738-1.192 1.463-2.395.328-.528.652-1.059c.429-.7.858-1.4 1.302-2.09-.277.038-.605.095-.955.155-.868.15-1.867.323-2.52.305-.612-.017-1.23-.127-1.848-.237M3.4 16.278l.747.108q.753 1.244 1.52 2.482l.002.003.014.023A202 202 0 0 1 7.8 22.38a49 49 0 0 0 .014 1.333l-1.49-1.219L.703 17.91c.63.009 1.262.007 1.893.005l.8-.002c.014-.544.004-1.09.003-1.635m8.948.025-.028.002-.517.08-3.657 5.952-.014 1.373a184 184 0 0 1 1.598-1.29 355 355 0 0 0 5.507-4.51l-2.7.003q.004-.181.012-.374v-.011c.017-.398.035-.82-.045-1.182-.071-.054-.08-.053-.135-.046zM3.08 13.905l-.001.123-.391-.639a18 18 0 0 0-.537-.902l-.244-.399c.228-.428.478-.847.729-1.265l.191-.32.188-.32c.13.2.092 2.255.072 3.306zm9.098 2.037.067-.122c.12-.213.24-.428.394-.619.014.197 0 .465-.036.626a1.6 1.6 0 0 1-.425.115m-8.76-.673c.185.226.32.487.462.74-.052-.006-.076-.008-.1-.013-.045-.009-.088-.027-.325-.102a2.7 2.7 0 0 1-.036-.625" clip-rule="evenodd"/>
  <path stroke="currentColor" stroke-width=".2" d="m11.703 8.198.01.014c.404.656.71 1.15.82 1.322v5.111l-.917 1.425c-.842.112-1.683.24-2.523.366l-.595.09-.493.074c-.816-.068-1.643-.202-2.465-.334q-.608-.1-1.21-.188l-.914-1.5-.01-5.03 4.547-7.244m3.75 5.894-.001-.002-.012-.02c-1.288-2.084-3.544-5.733-3.737-5.872m3.75 5.894-1.102-1.781C9.411 4.5 8.098 2.408 7.953 2.304m4.57 6.583a798 798 0 0 1-4.368-6.97q-.006-.439-.016-.877L8.13.668c.277.118.738.523 1.114.853q.15.132.274.239l.056.047.061.05a318 318 0 0 1 5.874 4.823l.006 10.91-2.645-.002v-1.264l-.004-1.642 1.595-2.56c-.32-.571-.664-1.13-1.008-1.687a80 80 0 0 1-.59-.966m-.34-.582c0-.071-.003-.183-.007-.32m.008.32v-.003c0-.072-.004-.182-.008-.316m0 0v-.023c-.017-.652-.049-1.84.118-2.014l.014-.013.012-.01.013-.01.147.064c.113.515.086 1.32.061 2.036m0 0v.01l-.002.044c-.01.299-.018.58-.016.817m.018-.87-.004.139c-.009.267-.016.517-.014.731M3.78 15.996c.024.005.048.007.1.013-.143-.253-.277-.514-.461-.74-.014.196 0 .397.036.625m.325.102c-.045-.009-.088-.027-.325-.102m.325.102c-.044-.008-.086-.026-.317-.099q-.004 0-.008-.003m11.64-9.998.014.011.138.115.11.092.488.405v11.338a667 667 0 0 1-7.843 6.378c-.167-.017-4.5-3.58-6.7-5.39l-.062-.051c-.564-.464-.979-.805-1.132-.929L.1 6.525 7.936.106c.255.036 5.147 4.113 7.16 5.791Zm-2.223 4.247c.32.4.595.89.861 1.365q.115.206.23.405l.113.193-.152.25-.16.257q-.206.336-.417.67l-.484.785q0-.567-.006-1.134a68 68 0 0 1 .015-2.791ZM7.749.689l.038.032c.077.227.055.577.037.88a7 7 0 0 0-.014.307L3.397 8.951q.001-.164.008-.343L3.41 8.5l.01-.213c.022-.533.046-1.104-.013-1.552-.017-.125-.054-.17-.151-.244l-.103.02c-.154.24-.11 1.725-.086 2.534l.008.25.003.18q-.795 1.299-1.567 2.61l1.57 2.575-.006 1.473-.005 1.458-2.638-.004.01-10.9c1.572-1.355 3.192-2.663 4.81-3.97Q6.508 1.706 7.75.69ZM6.056 16.672c-.496-.089-.992-.177-1.485-.217l.381.612a219 219 0 0 1 3.01 4.926q.738-1.192 1.463-2.395.328-.528.652-1.059c.429-.7.858-1.4 1.302-2.09-.277.038-.605.095-.955.155-.868.15-1.867.323-2.52.305-.612-.017-1.23-.127-1.848-.237ZM3.4 16.278l.747.108q.753 1.244 1.52 2.482l.002.003.014.023A202 202 0 0 1 7.8 22.38a49 49 0 0 0 .014 1.333l-1.49-1.219L.703 17.91c.63.009 1.262.007 1.893.005l.8-.002c.014-.544.004-1.09.003-1.635Zm8.948.025-.028.002-.517.08-3.657 5.952-.014 1.373a184 184 0 0 1 1.598-1.29 355 355 0 0 0 5.507-4.51l-2.7.003q.004-.181.012-.374v-.011c.017-.398.035-.82-.045-1.182-.071-.054-.08-.053-.135-.046zM3.08 13.905l-.001.123-.391-.639a18 18 0 0 0-.537-.902l-.244-.399c.228-.428.478-.847.729-1.265l.191-.32.188-.32c.13.2.092 2.255.072 3.306zm9.098 2.037.067-.122c.12-.213.24-.428.394-.619.014.197 0 .465-.036.626a1.6 1.6 0 0 1-.425.115Z"/>
  <path fill="currentColor" fill-rule="evenodd" stroke="currentColor" stroke-width=".2" d="m11.712 8.212-.522-.844.513.83z" clip-rule="evenodd"/>
  <path fill="currentColor" fill-rule="evenodd" d="M12.523 8.887c0-.074-.003-.19-.007-.334v.008c.004.14.007.254.007.326" clip-rule="evenodd"/>
  <path stroke="currentColor" stroke-width=".2" d="M12.516 8.56v-.007zm0 0v.008c.004.134.007.244.007.316"/>
  <path fill="currentColor" fill-rule="evenodd" stroke="currentColor" stroke-width=".2" d="m3.408 8.53-.003.078zm-.33.944c-.001-.09-.006-.242-.012-.43l.007.25q.004.11.004.18Z" clip-rule="evenodd"/>
  <path fill="currentColor" fill-rule="evenodd" d="M12.538 17.836q.004-.15.01-.308v.01q-.006.153-.01.298" clip-rule="evenodd"/>
  <path stroke="currentColor" stroke-width=".2" d="M12.548 17.539v-.011q-.006.158-.01.308.004-.146.01-.297Zm0 0-.008.193-.002.097"/>
  <path fill="currentColor" fill-rule="evenodd" stroke="currentColor" stroke-width=".2" d="M3.015 10.184q-.112.192-.227.384l.04-.065zm.063 3.843c0-.128.007-.417.013-.782l-.004.244c-.005.248-.009.44-.009.538Z" clip-rule="evenodd"/>
  <path fill="currentColor" d="M52.32 22.588v-.75h.761q.393 0 .672-.1a1 1 0 0 0 .47-.326q.191-.234.326-.65l1.993-6.406h.818l-2.083 6.642q-.18.57-.493.918-.315.36-.75.516a3 3 0 0 1-.997.156zm1.926-2.452v-.706h1.064v.706zm-.1 0-2.15-5.78h.861l2.072 5.78zM48.244 20.281v-5.925h.672v2.476h-.067q0-1.3.571-1.916.57-.627 1.792-.627h.19v.762h-.347q-.962 0-1.467.504-.504.492-.504 1.456v3.27zM45.339 20.281v-8.176h.84v8.176zm-.862-7.493v-.683h1.702v.683zM41.045 20.472q-.762 0-1.321-.258a2.65 2.65 0 0 1-.919-.706 3.2 3.2 0 0 1-.537-.996 3.8 3.8 0 0 1-.168-1.132v-.156q0-.572.168-1.12.18-.55.537-.986.36-.437.896-.694.55-.27 1.277-.27.93 0 1.546.415.627.414.94 1.064.314.639.314 1.378v.437H38.48v-.65h4.716l-.213.325q0-.66-.235-1.154a1.73 1.73 0 0 0-.672-.784q-.437-.291-1.098-.291-.695 0-1.154.325a2.03 2.03 0 0 0-.694.862 3.2 3.2 0 0 0-.224 1.221q0 .672.224 1.232.235.549.706.874.48.324 1.21.324.771 0 1.254-.347.481-.359.593-.84h.784q-.112.594-.47 1.03a2.4 2.4 0 0 1-.907.661 3.2 3.2 0 0 1-1.255.236M25.784 20.95q-.762 0-1.322-.257a2.65 2.65 0 0 1-.918-.705 3.2 3.2 0 0 1-.538-.997 3.8 3.8 0 0 1-.168-1.131v-.157q0-.57.168-1.12.18-.548.538-.986.358-.435.895-.694.55-.27 1.277-.269.93 0 1.546.415.628.414.94 1.064.315.637.314 1.377v.437H23.22v-.65h4.715l-.213.325q0-.66-.235-1.154a1.73 1.73 0 0 0-.672-.784q-.437-.29-1.098-.29-.694 0-1.153.324a2.03 2.03 0 0 0-.695.863 3.2 3.2 0 0 0-.224 1.22q0 .672.224 1.232.235.549.706.874.481.325 1.21.325.772 0 1.254-.348.482-.357.593-.84h.785q-.113.594-.47 1.03a2.4 2.4 0 0 1-.908.662 3.2 3.2 0 0 1-1.255.235M18.866 23.034v-.75h.672q.436 0 .66-.258.236-.246.236-.717v-6.473h.806v6.317q0 .694-.19 1.108-.18.415-.583.594-.402.18-1.075.18zm.605-7.526v-.672h1.77v.672zm1.12-1.87q-.303 0-.46-.158a.6.6 0 0 1-.145-.414.57.57 0 0 1 .145-.403q.157-.168.46-.168.302 0 .447.168a.57.57 0 0 1 .146.403.6.6 0 0 1-.146.414q-.145.157-.448.157M74.735 11.408q-.761 0-1.322-.257a2.65 2.65 0 0 1-.918-.706 3.1 3.1 0 0 1-.537-.997 3.8 3.8 0 0 1-.168-1.13V8.16q0-.57.168-1.12.178-.549.537-.985.36-.437.896-.695.55-.269 1.277-.269.93 0 1.545.415.628.413.941 1.064.314.638.314 1.377v.437H72.17v-.65h4.715l-.212.325q0-.66-.235-1.153a1.73 1.73 0 0 0-.672-.784q-.437-.291-1.098-.291-.695 0-1.154.324a2.03 2.03 0 0 0-.694.863q-.225.537-.224 1.22 0 .673.224 1.233.235.549.706.873.48.325 1.21.325.771 0 1.254-.347.481-.359.593-.84h.784q-.112.595-.47 1.03a2.4 2.4 0 0 1-.907.661 3.2 3.2 0 0 1-1.255.235M67.146 11.408a2.9 2.9 0 0 1-1.187-.235 2.9 2.9 0 0 1-.919-.672 3.3 3.3 0 0 1-.593-.985 3.5 3.5 0 0 1-.202-1.188v-.156q0-.606.202-1.154.202-.56.57-.986.382-.436.908-.683a2.74 2.74 0 0 1 1.199-.257q.75 0 1.321.324.57.325.919.941.346.605.37 1.49l-.37-.695v-4.11h.84v8.176h-.672V8.586h.268q-.022.93-.392 1.568a2.35 2.35 0 0 1-.952.94 2.7 2.7 0 0 1-1.31.314m.112-.739q.605 0 1.086-.269.493-.269.773-.761.28-.504.28-1.154v-.537q0-.628-.28-1.098a1.97 1.97 0 0 0-.773-.75 2.2 2.2 0 0 0-1.097-.27q-.66 0-1.154.326-.48.313-.75.862a2.9 2.9 0 0 0-.258 1.232q0 .705.269 1.254.27.55.761.863.493.302 1.143.302M62.058 11.218v-1.78h-.135V7.331q0-.662-.347-1.008-.347-.36-1.075-.359-.336 0-.683.011-.335.012-.65.034a9 9 0 0 0-.538.034v-.74l.504-.044q.258-.023.527-.023.28-.01.537-.011.907 0 1.456.224.56.224.818.706.258.47.258 1.254v3.808zm-2.005.157q-.627 0-1.109-.224a1.73 1.73 0 0 1-.75-.65q-.258-.426-.258-1.03 0-.594.269-1.008.28-.415.795-.627.527-.225 1.266-.224h1.736v.638H60.21q-.705 0-1.087.347-.37.337-.37.885 0 .56.393.896.392.324 1.064.325.414 0 .795-.146.38-.156.638-.515.258-.369.28-1.008l.247.347q-.045.66-.314 1.109-.27.437-.728.66-.459.225-1.075.225M47.79 11.218V5.282h.672V7.78h-.135q0-.819.224-1.412.235-.593.695-.918.459-.336 1.164-.336h.034q.706 0 1.165.325.46.324.683.918t.224 1.423h-.269q0-.819.224-1.412.235-.593.695-.918.47-.336 1.176-.336h.033q.706 0 1.165.325.47.324.694.918.236.594.236 1.423v3.438h-.84V7.589q0-.784-.381-1.243t-1.098-.46q-.74 0-1.176.482-.425.471-.425 1.277v3.573h-.84V7.589q0-.784-.381-1.243t-1.098-.46q-.74 0-1.176.482-.425.471-.425 1.277v3.573zM42.676 11.408a2.9 2.9 0 0 1-1.187-.235 2.9 2.9 0 0 1-.919-.672 3.3 3.3 0 0 1-.593-.985 3.5 3.5 0 0 1-.202-1.188v-.156q0-.606.202-1.154.201-.56.57-.986.382-.436.908-.683a2.74 2.74 0 0 1 1.198-.257q.75 0 1.322.324.57.325.918.941.348.605.37 1.49l-.37-.695v-4.11h.84v8.176h-.672V8.586h.27q-.024.93-.393 1.568a2.35 2.35 0 0 1-.952.94 2.7 2.7 0 0 1-1.31.314m.112-.739q.605 0 1.086-.269.493-.269.773-.761.28-.504.28-1.154v-.537q0-.628-.28-1.098a1.97 1.97 0 0 0-.773-.75 2.2 2.2 0 0 0-1.098-.27q-.66 0-1.153.326-.481.313-.75.862a2.9 2.9 0 0 0-.258 1.232q0 .705.269 1.254.269.55.761.863.494.302 1.143.302M33.248 11.218V5.293h.672V7.78h-.134q0-.83.246-1.423.245-.594.74-.918.492-.325 1.242-.325h.034q1.12 0 1.669.706.549.693.549 1.96v3.438h-.83V7.6q0-.773-.425-1.243-.426-.47-1.187-.47-.784 0-1.266.493-.47.48-.47 1.276v3.562zM30.59 11.218v-1.78h-.134V7.331q0-.662-.348-1.008-.347-.36-1.075-.359a21 21 0 0 0-1.333.045 9 9 0 0 0-.537.034v-.74q.246-.023.504-.044.257-.023.526-.023.28-.01.538-.011.906 0 1.456.224.56.224.817.706.258.47.258 1.254v3.808zm-2.005.157q-.627 0-1.109-.224a1.73 1.73 0 0 1-.75-.65q-.258-.426-.258-1.03 0-.594.27-1.008.278-.415.794-.627.526-.225 1.266-.224h1.736v.638h-1.792q-.705 0-1.087.347-.37.337-.37.885 0 .56.393.896.392.324 1.064.325.414 0 .795-.146.381-.156.639-.515.257-.369.28-1.008l.246.347q-.045.66-.314 1.109-.269.437-.728.66-.459.225-1.075.225M19.986 11.218V3.042h.84v4.626l-.246.19q0-.829.235-1.445.246-.615.728-.952.494-.347 1.232-.347h.045q1.075 0 1.624.706.56.705.56 1.96v3.438h-.829V7.6q0-.795-.437-1.254-.436-.46-1.176-.46-.795 0-1.265.516-.47.504-.47 1.333v3.483zM31.648 20.105l1.175-5.325h1.092l1.362 5.325h-.676l-1.362-5.293h.25l-1.186 5.293zm-.448 0v-.634h.947v.634zm-.187 0-1.591-5.501h.749l1.57 5.501zm3.765 0v-.634h.925v.634zm.406 0 1.372-5.501h.718l-1.404 5.501z"/>
</svg>