<svg xmlns="http://www.w3.org/2000/svg" width="318" height="100" fill="none">
    <path fill="#000" fill-rule="evenodd" d="m61.461 24.005.056.046.558.465.45.375 1.985 1.652.004 46.16A2715 2715 0 0 1 32.578 98.67c-.68-.068-18.32-14.576-27.28-21.946l-.25-.206c-2.297-1.889-3.985-3.277-4.61-3.78l-.03-46.17L32.31.428c1.04.148 20.956 16.746 29.15 23.577m-13.776 9.431-.036-.057-.006-.01-.05-.081C42.35 24.804 33.166 9.945 32.38 9.38L13.868 38.876l.041 20.476 3.723 6.108c1.63.232 3.273.498 4.923.764 3.345.54 6.713 1.085 10.035 1.361l2.008-.3 2.422-.365c3.421-.517 6.844-1.035 10.271-1.493l3.735-5.8-.002-20.809c-.445-.698-1.69-2.713-3.34-5.382m4.722 7.86c1.303 1.627 2.422 3.624 3.506 5.56.313.556.623 1.108.933 1.645q.23.4.464.788l-.622 1.014-.645 1.05q-.846 1.366-1.7 2.726l-1.971 3.197c-.002-1.537-.015-3.077-.028-4.618-.031-3.79-.062-7.587.063-11.363M37.637 6.193C36.106 4.849 34.227 3.2 33.1 2.719l.034 1.516c.028 1.19.056 2.38.066 3.57q8.82 14.235 17.788 28.378c-.001-.29-.014-.744-.03-1.3v-.093c-.07-2.656-.2-7.487.478-8.2a1 1 0 0 1 .058-.054l.05-.041.051-.041.598.261c.46 2.1.35 5.374.251 8.292l-.002.043-.005.178c-.04 1.216-.077 2.362-.066 3.325a324 324 0 0 0 2.4 3.93c1.4 2.272 2.803 4.546 4.104 6.867L52.38 59.78l.016 6.683v5.146l10.77.006-.022-44.415a1295 1295 0 0 0-23.917-19.64l-.248-.203-.228-.192c-.335-.285-.713-.617-1.115-.97m-6.086-3.39.154.132c.311.924.224 2.35.15 3.586a27 27 0 0 0-.059 1.248L13.83 36.444q.009-.668.035-1.396l.017-.445.036-.868c.091-2.167.19-4.495-.052-6.317-.067-.51-.22-.695-.615-.993l-.415.078c-.628.977-.448 7.023-.35 10.318l.028 1.018c.009.299.014.548.016.734a768 768 0 0 0-6.382 10.624l6.395 10.487-.027 5.997-.021 5.935L1.755 71.6l.041-44.378C8.194 21.704 14.79 16.38 21.382 11.06c3.4-2.744 6.8-5.488 10.169-8.255m-6.894 65.074c-2.02-.36-4.039-.72-6.047-.883l1.553 2.494c4.14 6.645 8.291 13.309 12.251 20.054a897 897 0 0 0 5.96-9.75c.89-1.433 1.772-2.872 2.654-4.312 1.746-2.851 3.494-5.703 5.3-8.513-1.125.16-2.464.39-3.887.636-3.534.61-7.6 1.311-10.258 1.239-2.496-.069-5.011-.517-7.526-.965M13.84 66.275l3.042.439c2.039 3.382 4.113 6.743 6.187 10.105l.008.014.056.09c2.907 4.714 5.814 9.428 8.625 14.2q-.002 1.115.007 2.23.012 1.599.048 3.198l-6.063-4.963-22.887-18.67c2.568.036 5.139.029 7.708.021q1.628-.006 3.255-.007c.06-2.216.019-4.439.014-6.657m36.431.1-.113.01-2.106.325-14.89 24.233-.058 5.59a739 739 0 0 1 6.507-5.248 1447 1447 0 0 0 22.423-18.364l-10.994.011c.007-.49.027-1.002.048-1.524l.003-.045c.068-1.621.139-3.336-.185-4.813-.29-.217-.326-.213-.549-.185zm-37.732-9.761-.004.498-1.591-2.6c-.676-1.242-1.432-2.46-2.184-3.673q-.505-.811-.997-1.622c.93-1.743 1.95-3.449 2.97-5.151l.779-1.304q.385-.65.764-1.3c.533.81.374 9.18.293 13.457-.013.687-.024 1.268-.03 1.695m37.042 8.291.276-.493c.485-.87.974-1.745 1.604-2.52.056.8-.003 1.89-.147 2.546-.79.29-1.11.393-1.733.467m-35.661-2.74c.749.922 1.296 1.985 1.879 3.014-.214-.026-.312-.034-.408-.052-.183-.035-.359-.108-1.325-.415-.146-.93-.203-1.746-.146-2.547" clip-rule="evenodd"/>
    <path stroke="#000" stroke-width=".814" d="m47.649 33.379.036.057c1.649 2.67 2.894 4.684 3.339 5.382l.002 20.81-3.735 5.799c-3.427.458-6.85.976-10.27 1.493l-2.423.365-2.008.3c-3.322-.276-6.69-.82-10.035-1.36-1.65-.267-3.293-.533-4.923-.765l-3.723-6.108-.041-20.476L32.38 9.381m15.269 23.998-.006-.01-.05-.081C42.35 24.804 33.166 9.945 32.38 9.38m15.269 23.998c-1.31-2.12-2.871-4.647-4.488-7.253C38.317 18.321 32.97 9.805 32.38 9.381m18.609 26.802A3246 3246 0 0 1 33.2 7.805c-.01-1.19-.038-2.38-.066-3.57l-.034-1.516c1.127.48 3.005 2.13 4.536 3.475.402.353.78.685 1.114.97l.229.192.248.203q12.075 9.677 23.917 19.64l.023 44.415-10.771-.006v-5.146l-.016-6.683 6.495-10.429c-1.3-2.32-2.703-4.595-4.105-6.867a324 324 0 0 1-2.399-3.93m-1.383-2.37c-.001-.29-.014-.744-.03-1.3m.03 1.3v-.014c0-.29-.014-.738-.03-1.286m0 0v-.093c-.07-2.656-.2-7.487.478-8.2a1 1 0 0 1 .058-.054l.05-.041.051-.041.598.261c.46 2.1.35 5.374.251 8.292m0 0-.002.043-.005.178c-.04 1.216-.077 2.362-.066 3.325m.073-3.546-.019.569a71 71 0 0 0-.054 2.977M15.39 65.127c.096.018.194.026.408.052-.583-1.03-1.13-2.092-1.88-3.014-.056.801 0 1.617.147 2.547m1.325.415c-.183-.035-.359-.108-1.325-.415m1.325.415c-.181-.035-.351-.106-1.29-.404l-.035-.01M61.46 24.004l.056.046.558.465.45.375 1.985 1.652.004 46.16A2715 2715 0 0 1 32.578 98.67c-.68-.068-18.32-14.576-27.28-21.946l-.25-.206c-2.297-1.889-3.985-3.277-4.61-3.78l-.03-46.17L32.31.428c1.04.148 20.956 16.746 29.15 23.577Zm-9.054 17.29c1.303 1.628 2.422 3.625 3.506 5.56.313.557.623 1.11.933 1.646q.23.4.464.788l-.622 1.014-.645 1.05q-.846 1.366-1.7 2.726l-1.971 3.197c-.002-1.537-.015-3.077-.028-4.618-.031-3.79-.062-7.587.063-11.363ZM31.551 2.804l.154.132c.311.924.224 2.35.15 3.586-.028.453-.054.88-.059 1.248L13.83 36.444a54 54 0 0 1 .035-1.396l.017-.445.036-.868c.091-2.167.19-4.495-.052-6.317-.067-.51-.22-.695-.615-.993l-.415.078c-.628.977-.448 7.023-.35 10.318l.028 1.018c.009.299.014.548.016.734a768 768 0 0 0-6.382 10.624l6.395 10.487-.027 5.997-.021 5.935L1.755 71.6l.041-44.378C8.194 21.704 14.79 16.38 21.382 11.06c3.4-2.744 6.8-5.488 10.169-8.255Zm-6.894 65.074c-2.02-.36-4.039-.72-6.047-.883l1.553 2.494c4.14 6.645 8.291 13.309 12.251 20.054a897 897 0 0 0 5.96-9.75c.89-1.433 1.772-2.872 2.654-4.312 1.746-2.851 3.494-5.703 5.3-8.513-1.125.16-2.464.39-3.887.636-3.534.61-7.6 1.311-10.258 1.239-2.496-.069-5.011-.517-7.526-.965ZM13.84 66.275l3.042.439c2.039 3.382 4.113 6.743 6.187 10.105l.008.014.056.09c2.907 4.714 5.814 9.428 8.625 14.2q-.002 1.115.007 2.23.012 1.599.048 3.198l-6.063-4.963-22.887-18.67c2.568.036 5.139.029 7.708.021q1.628-.006 3.255-.007c.06-2.216.019-4.439.014-6.657Zm36.431.1-.113.01-2.106.325-14.89 24.233-.058 5.59a739 739 0 0 1 6.507-5.248 1447 1447 0 0 0 22.423-18.364l-10.994.011c.007-.49.027-1.002.048-1.524l.003-.045c.068-1.621.139-3.336-.185-4.813-.29-.217-.326-.213-.549-.185zm-37.732-9.761-.004.498-1.591-2.6c-.676-1.242-1.432-2.46-2.184-3.673q-.505-.811-.997-1.622c.93-1.743 1.95-3.449 2.97-5.151l.779-1.304q.385-.65.764-1.3c.533.81.374 9.18.293 13.457-.013.687-.024 1.268-.03 1.695Zm37.042 8.291.276-.493c.485-.87.974-1.745 1.604-2.52.056.8-.003 1.89-.147 2.546-.79.29-1.11.393-1.733.467Z"/>
    <path fill="#000" fill-rule="evenodd" stroke="#000" stroke-width=".814" d="m47.685 33.436-2.126-3.438 2.09 3.38z" clip-rule="evenodd"/>
    <path fill="#000" fill-rule="evenodd" d="M50.988 36.183c-.001-.3-.014-.776-.03-1.358v.03c.016.568.029 1.033.03 1.328" clip-rule="evenodd"/>
    <path stroke="#000" stroke-width=".814" d="M50.958 34.854v-.03c.016.583.029 1.059.03 1.359-.001-.295-.014-.76-.03-1.329Zm0 0v.029c.016.547.03.995.03 1.286"/>
    <path fill="#000" fill-rule="evenodd" stroke="#000" stroke-width=".814" d="m13.876 34.728-.012.32zm-1.348 3.845c-.002-.37-.02-.987-.044-1.753l.029 1.02c.008.298.014.546.015.733Z" clip-rule="evenodd"/>
    <path fill="#000" fill-rule="evenodd" d="M51.046 72.62q.016-.615.045-1.258l-.003.046q-.027.619-.042 1.212" clip-rule="evenodd"/>
    <path stroke="#000" stroke-width=".814" d="m51.088 71.408.003-.046q-.029.643-.045 1.258c.009-.396.026-.799.042-1.213Zm0 0q-.017.399-.03.788-.008.198-.011.394"/>
    <path fill="#000" fill-rule="evenodd" stroke="#000" stroke-width=".814" d="M12.274 41.462q-.456.785-.923 1.566l.159-.266q.385-.65.764-1.3Zm.259 15.65c0-.523.025-1.7.052-3.187l-.018.994c-.02 1.01-.034 1.793-.034 2.193Z" clip-rule="evenodd"/>
    <path fill="#000" d="M213.017 91.967v-3.055h3.101q1.596 0 2.736-.41a4 4 0 0 0 1.915-1.323q.775-.957 1.322-2.645l8.117-26.083h3.329l-8.482 27.041q-.73 2.325-2.006 3.74a7.27 7.27 0 0 1-3.055 2.097q-1.779.638-4.059.638zm7.843-9.986v-2.873h4.332v2.873zm-.41 0-8.756-23.53h3.512l8.436 23.53zM196.423 82.573V58.451h2.736v10.077h-.274q0-5.289 2.326-7.797 2.325-2.554 7.296-2.554h.775v3.101h-1.414q-3.921 0-5.973 2.052-2.052 2.007-2.052 5.928v13.315zM184.594 82.574V49.286h3.42v33.288zm-3.511-30.507v-2.781h6.931v2.781zM167.113 83.349q-3.101 0-5.381-1.049-2.28-1.094-3.739-2.873a12.8 12.8 0 0 1-2.189-4.058 15.7 15.7 0 0 1-.684-4.606v-.638q0-2.325.684-4.56a12.3 12.3 0 0 1 2.189-4.013q1.458-1.779 3.648-2.827 2.234-1.095 5.198-1.095 3.785 0 6.293 1.688 2.553 1.686 3.83 4.332 1.277 2.599 1.277 5.608v1.779H156.67v-2.645h19.198l-.867 1.322q0-2.69-.957-4.696-.912-2.052-2.736-3.192-1.779-1.185-4.469-1.186-2.827 0-4.697 1.322t-2.827 3.512q-.912 2.189-.912 4.97 0 2.736.912 5.016.957 2.234 2.873 3.557 1.96 1.322 4.925 1.322 3.146 0 5.107-1.413 1.96-1.46 2.417-3.42h3.192q-.456 2.416-1.916 4.195-1.459 1.733-3.693 2.69-2.235.958-5.107.958M104.977 85.3q-3.101 0-5.381-1.049-2.28-1.094-3.74-2.873a12.8 12.8 0 0 1-2.188-4.058 15.7 15.7 0 0 1-.684-4.606v-.638q0-2.325.684-4.56a12.3 12.3 0 0 1 2.189-4.013q1.459-1.778 3.648-2.827 2.234-1.095 5.198-1.095 3.785 0 6.293 1.688 2.553 1.688 3.83 4.332 1.277 2.599 1.277 5.609v1.778H94.534v-2.645h19.198l-.867 1.322q0-2.69-.957-4.696-.912-2.052-2.736-3.192-1.779-1.185-4.469-1.186-2.827 0-4.697 1.322t-2.827 3.512q-.912 2.189-.912 4.97 0 2.736.912 5.016.957 2.234 2.873 3.557 1.96 1.323 4.925 1.322 3.146 0 5.107-1.413 1.96-1.46 2.417-3.42h3.192q-.456 2.416-1.916 4.195-1.459 1.733-3.693 2.69-2.235.958-5.107.958M76.811 93.782v-3.055h2.736q1.779 0 2.69-1.05.958-1.002.958-2.918V60.403h3.283V86.12q0 2.828-.775 4.514-.73 1.687-2.371 2.417t-4.378.73zm2.462-30.643v-2.736h7.205v2.736zm4.56-7.616q-1.23 0-1.87-.638-.591-.684-.592-1.687 0-1.004.593-1.642.638-.684 1.87-.684 1.23 0 1.823.684.593.639.593 1.642t-.593 1.687q-.593.638-1.824.638M304.279 46.448q-3.101 0-5.381-1.048-2.28-1.095-3.739-2.873a12.8 12.8 0 0 1-2.189-4.059 15.7 15.7 0 0 1-.684-4.605v-.639q0-2.325.684-4.56a12.3 12.3 0 0 1 2.189-4.012q1.458-1.779 3.648-2.828 2.234-1.095 5.198-1.094 3.785 0 6.293 1.687 2.553 1.688 3.83 4.332 1.277 2.6 1.277 5.609v1.778h-21.569v-2.644h19.198l-.867 1.322q0-2.691-.957-4.697-.912-2.052-2.736-3.192-1.778-1.185-4.469-1.185-2.827 0-4.697 1.322t-2.827 3.511q-.912 2.19-.912 4.97 0 2.737.912 5.017.957 2.235 2.873 3.556 1.96 1.323 4.925 1.323 3.146 0 5.107-1.414 1.96-1.46 2.417-3.42h3.192q-.456 2.417-1.916 4.195-1.459 1.734-3.693 2.69-2.235.959-5.107.958M273.38 46.448q-2.644 0-4.833-.958a11.9 11.9 0 0 1-3.74-2.736 13.5 13.5 0 0 1-2.416-4.012q-.822-2.28-.821-4.834v-.638q0-2.463.821-4.697.82-2.28 2.325-4.013a11.1 11.1 0 0 1 3.694-2.782q2.188-1.048 4.879-1.048 3.055 0 5.381 1.322t3.739 3.83q1.413 2.463 1.505 6.065l-1.505-2.827V12.385h3.42v33.288h-2.736V34.957h1.094q-.09 3.784-1.596 6.384-1.458 2.553-3.876 3.83-2.37 1.277-5.335 1.277m.456-3.01q2.463 0 4.423-1.094a7.9 7.9 0 0 0 3.147-3.1q1.14-2.053 1.14-4.698v-2.188q0-2.554-1.14-4.47a8 8 0 0 0-3.147-3.054q-1.96-1.095-4.468-1.095-2.691 0-4.697 1.323-1.961 1.276-3.055 3.51-1.05 2.235-1.049 5.017 0 2.872 1.094 5.107t3.101 3.511q2.007 1.231 4.651 1.231M252.663 45.673v-7.25h-.547V29.85q0-2.691-1.414-4.104-1.413-1.46-4.378-1.46-1.368 0-2.781.046-1.368.045-2.645.137-1.231.045-2.189.137v-3.01q1.004-.091 2.052-.182t2.143-.091q1.14-.046 2.189-.046 3.695 0 5.928.912 2.28.912 3.329 2.873 1.049 1.914 1.049 5.107v15.504zm-8.163.638q-2.553 0-4.514-.912t-3.055-2.645q-1.049-1.732-1.049-4.195 0-2.416 1.094-4.104 1.14-1.687 3.238-2.553 2.143-.912 5.153-.912h7.068v2.599h-7.296q-2.873 0-4.423 1.413-1.505 1.368-1.505 3.603 0 2.28 1.596 3.648 1.596 1.322 4.332 1.322a9 9 0 0 0 3.237-.593q1.55-.638 2.6-2.097 1.049-1.505 1.14-4.104l1.003 1.413q-.183 2.691-1.277 4.515a7.04 7.04 0 0 1-2.964 2.69q-1.87.912-4.378.912M194.572 45.673V21.505h2.736v10.17h-.547q0-3.33.912-5.747.957-2.415 2.827-3.739 1.87-1.368 4.743-1.368h.136q2.873 0 4.743 1.323 1.869 1.322 2.781 3.739t.912 5.791h-1.094q0-3.33.912-5.745.958-2.417 2.827-3.74 1.915-1.368 4.788-1.368h.137q2.873 0 4.742 1.323 1.916 1.322 2.828 3.739.957 2.416.957 5.791v14h-3.42V30.898q0-3.192-1.55-5.062t-4.469-1.87q-3.009 0-4.788 1.962-1.733 1.915-1.733 5.198v14.546h-3.42V30.9q0-3.192-1.55-5.062t-4.469-1.87q-3.009 0-4.788 1.962-1.733 1.915-1.733 5.198v14.546zM173.752 46.448q-2.646 0-4.834-.958a11.9 11.9 0 0 1-3.739-2.736 13.5 13.5 0 0 1-2.417-4.012 14.2 14.2 0 0 1-.821-4.834v-.638q0-2.463.821-4.697.82-2.28 2.326-4.013a11.1 11.1 0 0 1 3.693-2.782q2.189-1.048 4.879-1.048 3.056 0 5.381 1.322t3.739 3.83q1.414 2.463 1.505 6.065l-1.505-2.827V12.385h3.42v33.288h-2.736V34.957h1.095q-.091 3.784-1.596 6.384-1.46 2.553-3.876 3.83-2.371 1.277-5.335 1.277m.456-3.01q2.462 0 4.423-1.094a7.9 7.9 0 0 0 3.146-3.1q1.14-2.053 1.14-4.698v-2.188q0-2.554-1.14-4.47a8 8 0 0 0-3.146-3.054q-1.96-1.095-4.469-1.095-2.69 0-4.697 1.323-1.96 1.276-3.055 3.51-1.049 2.235-1.049 5.017 0 2.872 1.095 5.107t3.1 3.511q2.007 1.231 4.652 1.231M135.367 45.673V21.551h2.736v10.123h-.547q0-3.375 1.003-5.791t3.01-3.74q2.007-1.321 5.062-1.322h.136q4.56 0 6.795 2.873 2.234 2.828 2.234 7.98v14h-3.374v-14.73q0-3.145-1.733-5.061-1.732-1.915-4.834-1.915-3.192 0-5.152 2.006-1.916 1.96-1.916 5.198v14.501zM124.543 45.673v-7.25h-.547V29.85q0-2.691-1.413-4.104-1.414-1.46-4.378-1.46-1.368 0-2.782.046-1.368.045-2.644.137-1.232.045-2.189.137v-3.01q1.004-.091 2.052-.182a25 25 0 0 1 2.143-.091q1.14-.046 2.189-.046 3.693 0 5.928.912 2.28.912 3.329 2.873 1.048 1.914 1.048 5.107v15.504zm-8.162.638q-2.553 0-4.514-.912t-3.056-2.645q-1.048-1.732-1.048-4.195 0-2.416 1.094-4.104 1.14-1.687 3.238-2.553 2.142-.912 5.152-.912h7.068v2.599h-7.296q-2.872 0-4.423 1.413-1.505 1.368-1.505 3.603 0 2.28 1.596 3.648 1.596 1.322 4.332 1.322a9 9 0 0 0 3.238-.593q1.55-.638 2.599-2.097 1.048-1.505 1.14-4.104l1.003 1.413q-.182 2.691-1.276 4.515a7.04 7.04 0 0 1-2.964 2.69q-1.87.912-4.378.912M81.372 45.673V12.385h3.42v18.833l-1.003.775q0-3.374.958-5.883 1.002-2.508 2.964-3.876 2.006-1.413 5.016-1.413h.182q4.377 0 6.612 2.873 2.28 2.872 2.28 7.98v13.999h-3.374V30.944q0-3.237-1.779-5.107t-4.788-1.87q-3.237 0-5.153 2.098-1.915 2.052-1.915 5.426v14.182zM128.85 81.857l4.785-21.68h4.446l5.547 21.68h-2.752l-5.547-21.553h1.016l-4.827 21.553zm-1.82 0v-2.583h3.853v2.583zm-.762 0-6.479-22.4h3.049l6.394 22.4zm15.328 0v-2.583h3.768v2.583zm1.651 0 5.589-22.4h2.922l-5.716 22.4z"/>
</svg>