<svg xmlns="http://www.w3.org/2000/svg" aria-hidden="true" style="position:absolute;width:0;height:0;overflow:hidden">
    <defs>
        <symbol id="Youtube" viewBox="0 0 32 32">
            <path d="M28.791 9.604a3.35 3.35 0 0 0-2.35-2.354C24.353 6.677 16 6.667 16 6.667s-8.352-.009-10.441.539a3.42 3.42 0 0 0-2.354 2.371c-.551 2.088-.556 6.419-.556 6.419s-.005 4.352.541 6.419a3.34 3.34 0 0 0 2.351 2.353c2.109.573 10.44.583 10.44.583s8.353.009 10.441-.537a3.36 3.36 0 0 0 2.356-2.35c.552-2.087.556-6.416.556-6.416s.027-4.353-.543-6.441zM13.328 20.007l.007-8 6.943 4.007z"/>
        </symbol>
        <symbol id="X" viewBox="0 0 32 32">
            <path d="M22.901 5.657h3.68l-8.04 9.037L28 26.991h-7.406l-5.801-7.458-6.637 7.458H4.474l8.6-9.666L4 5.657h7.594l5.243 6.817zM21.61 24.824h2.039L10.486 7.709H8.298z"/>
        </symbol>
        <symbol id="phone" viewBox="0 0 32 32">
            <path d="M23.61 16.391a1.34 1.34 0 0 0-.942-.391 1.33 1.33 0 0 0-.942.391l-2.125 2.125c-.985-.293-2.824-.96-3.989-2.125s-1.832-3.004-2.125-3.989l2.125-2.125a1.34 1.34 0 0 0 .391-.942 1.33 1.33 0 0 0-.391-.942L10.279 3.06a1.34 1.34 0 0 0-.942-.391 1.33 1.33 0 0 0-.942.391L4.779 6.676a2.66 2.66 0 0 0-.781 1.913c.031 1.899.533 8.493 5.731 13.691s11.792 5.699 13.692 5.731h.037c.704 0 1.369-.277 1.873-.781l3.616-3.616a1.34 1.34 0 0 0 .391-.942 1.33 1.33 0 0 0-.391-.942l-5.333-5.335zm-.17 8.949c-1.664-.028-7.357-.475-11.831-4.949C7.121 15.903 6.686 10.19 6.66 8.559l2.673-2.673 3.448 3.448-1.724 1.724a1.33 1.33 0 0 0-.362 1.216c.032.153.815 3.789 3.028 6.003s5.849 2.996 6.003 3.028a1.32 1.32 0 0 0 1.216-.361l1.725-1.724 3.448 3.448-2.675 2.673z"/>
        </symbol>
        <symbol id="menu" viewBox="0 0 32 32">
            <path d="M5.333 8h21.333v2.667H5.333zm0 6.667h21.333v2.667H5.333zm0 6.666h21.333V24H5.333z"/>
        </symbol>
        <symbol id="map" viewBox="0 0 32 32">
            <path d="M16 18.667c2.941 0 5.333-2.392 5.333-5.333S18.941 8.001 16 8.001s-5.333 2.392-5.333 5.333 2.392 5.333 5.333 5.333m0-8c1.471 0 2.667 1.196 2.667 2.667S17.471 16.001 16 16.001s-2.667-1.196-2.667-2.667 1.196-2.667 2.667-2.667"/>
            <path d="M15.227 29.085a1.33 1.33 0 0 0 1.546 0c.405-.287 9.932-7.165 9.893-15.752 0-5.881-4.785-10.667-10.667-10.667S5.332 7.451 5.332 13.326c-.039 8.593 9.488 15.472 9.893 15.759zM16 5.333c4.412 0 8 3.588 8 8.007.028 5.917-5.851 11.231-8 12.973-2.148-1.744-8.028-7.059-8-12.98 0-4.412 3.588-8 8-8"/>
        </symbol>
        <symbol id="LinkedIn" viewBox="0 0 32 32">
            <path d="M25.75 4H6.25A2.257 2.257 0 0 0 4 6.25v19.5A2.257 2.257 0 0 0 6.25 28h19.5A2.257 2.257 0 0 0 28 25.75V6.25A2.257 2.257 0 0 0 25.75 4M13 23.5h-3V13h3zm-1.5-12a1.5 1.5 0 1 1-.001-2.999A1.5 1.5 0 0 1 11.5 11.5m12 12h-3v-6a1.5 1.5 0 1 0-3 0v6h-3V13h3v1.861c.619-.848 1.565-1.861 2.625-1.861 1.866 0 3.375 1.679 3.375 3.75z"/>
        </symbol>
        <symbol id="leaf" viewBox="0 0 32 32">
            <path d="m29.173 2.867-1.6.533a18.45 18.45 0 0 1-8.547.853 15.83 15.83 0 0 0-8.907 1.2 9.64 9.64 0 0 0-5.72 7.214 11.53 11.53 0 0 0 1.96 8.8c-.08.28-.16.56-.227.84a30 30 0 0 0-.8 7.027h2.667c.125-1.936.388-3.861.787-5.76a12.34 12.34 0 0 0 6.027 1.48 14.7 14.7 0 0 0 5.707-1.16c10.147-4.333 8.813-18.747 8.813-19.347zM19.48 21.44c-3.48 1.48-7.64 1.227-9.973-.6a18.4 18.4 0 0 1 1.613-3.787 13.6 13.6 0 0 1 1.853-2.387 12 12 0 0 1 2.413-1.893 16 16 0 0 1 5.947-2.107V9.333a15.24 15.24 0 0 0-7.013 1.44 13.7 13.7 0 0 0-5.493 4.867 20 20 0 0 0-1.333 2.493 9.34 9.34 0 0 1-.507-4.973 6.99 6.99 0 0 1 4.187-5.334 11.9 11.9 0 0 1 5.093-1.12c.827 0 1.64.08 2.493.147a21.6 21.6 0 0 0 8-.467c-.093 3.68-.76 12.28-7.28 15.053z"/>
        </symbol>
        <symbol id="Instagram" viewBox="0 0 32 32">
            <path d="M15.998 6.161c3.206 0 3.585.014 4.846.071 1.172.052 1.804.248 2.226.412.558.216.961.478 1.378.895.422.422.679.82.9 1.378.164.422.361 1.059.412 2.226.056 1.266.071 1.645.071 4.847s-.014 3.585-.071 4.847c-.052 1.172-.248 1.804-.412 2.227a3.7 3.7 0 0 1-.895 1.377c-.422.422-.82.679-1.378.9-.422.164-1.06.361-2.226.412-1.266.056-1.645.071-4.847.071s-3.585-.014-4.847-.071c-1.172-.052-1.804-.248-2.226-.412a3.7 3.7 0 0 1-1.378-.895 3.8 3.8 0 0 1-.9-1.378c-.164-.422-.361-1.06-.412-2.226-.056-1.266-.071-1.645-.071-4.847s.014-3.585.071-4.847c.052-1.172.248-1.804.412-2.226.216-.558.478-.961.895-1.378.422-.422.82-.679 1.378-.9.422-.164 1.059-.361 2.226-.412 1.261-.056 1.641-.071 4.847-.071zm0-2.16c-3.258 0-3.665.014-4.945.071-1.275.056-2.151.262-2.91.558a5.85 5.85 0 0 0-2.127 1.387A5.9 5.9 0 0 0 4.629 8.14c-.295.764-.502 1.636-.558 2.91C4.015 12.335 4 12.742 4 15.999s.014 3.665.071 4.945c.056 1.275.262 2.151.558 2.91a5.9 5.9 0 0 0 1.387 2.127 5.9 5.9 0 0 0 2.123 1.383c.764.295 1.636.502 2.91.558 1.279.056 1.687.071 4.945.071s3.666-.014 4.945-.071c1.275-.056 2.151-.262 2.91-.558.787-.305 1.458-.717 2.123-1.383s1.078-1.336 1.383-2.123c.295-.764.502-1.635.558-2.91.056-1.279.071-1.687.071-4.945s-.014-3.665-.071-4.945c-.056-1.275-.262-2.151-.558-2.91a5.6 5.6 0 0 0-1.373-2.133 5.9 5.9 0 0 0-2.123-1.383c-.764-.295-1.635-.502-2.91-.558-1.284-.061-1.692-.075-4.949-.075L15.999 4z"/>
            <path d="M15.998 9.836a6.164 6.164 0 1 0 6.163 6.163 6.164 6.164 0 0 0-6.163-6.163m0 10.161a3.998 3.998 0 1 1 0-7.996 3.998 3.998 0 0 1 0 7.996m7.845-10.405a1.439 1.439 0 1 1-2.877 0 1.439 1.439 0 0 1 2.877 0"/>
        </symbol>
        <symbol id="Facebook" viewBox="0 0 32 32">
            <path d="M29.333 16.405C29.333 8.996 23.364 2.99 16 2.99S2.667 8.996 2.667 16.405c0 6.696 4.876 12.245 11.25 13.252v-9.374h-3.385v-3.878h3.385V13.45c0-3.362 1.991-5.219 5.036-5.219 1.459 0 2.985.262 2.985.262v3.301h-1.681c-1.656 0-2.173 1.034-2.173 2.095v2.516h3.698l-.591 3.878h-3.107v9.374c6.374-1.006 11.25-6.556 11.25-13.252z"/>
        </symbol>
        <symbol id="envelope" viewBox="0 0 32 32">
            <path d="M26.667 5.333H5.334A2.67 2.67 0 0 0 2.667 8v16a2.67 2.67 0 0 0 2.667 2.667h21.333A2.67 2.67 0 0 0 29.334 24V8a2.67 2.67 0 0 0-2.667-2.667m0 2.667v.681L16 16.978 5.333 8.682v-.683h21.333zM5.333 24V12.059l9.848 7.66a1.33 1.33 0 0 0 1.638 0l9.848-7.66L26.67 24z"/>
        </symbol>
        <symbol id="donate-heart" viewBox="0 0 32 32">
            <path d="M5.333 28H18.16a5.33 5.33 0 0 0 4.05-1.862l6.803-7.936a1.34 1.34 0 0 0 .274-1.224 1.33 1.33 0 0 0-.863-.91l-2.624-.875a4.06 4.06 0 0 0-3.764.67l-4.247 3.396-.823-1.647a5.31 5.31 0 0 0-4.77-2.947H5.335a2.67 2.67 0 0 0-2.667 2.667v8a2.67 2.67 0 0 0 2.667 2.667zm0-10.667h6.861a2.65 2.65 0 0 1 2.385 1.473l.596 1.193H9.332v2.667h8.019c.205-.003.407-.053.589-.147l.004-.001.005-.003h.004l.003-.001h.005l.001-.001c.012.004.004-.001.004-.001.013 0 .003-.001.003-.001h.001l.003-.001.004-.001.005-.003.004-.001.003-.001q.005 0 .003-.001l.004-.003.005-.003.004-.001.003-.001h.001l.003-.001.004-.001.003-.001c.012-.001.004-.001.004-.001l.003-.001q.076-.047.147-.104l5.528-4.423a1.35 1.35 0 0 1 1.253-.223l.743.248-5.511 6.431a2.7 2.7 0 0 1-2.027.918H5.332v-8zM21.311 2.667c-.217.003-1.341.052-2.644.94-1.268-.864-2.365-.933-2.624-.939l-.04-.001h-.005a3.97 3.97 0 0 0-2.825 1.171c-.755.756-1.172 1.76-1.172 2.829s.417 2.073 1.148 2.805l4.552 4.781a1.34 1.34 0 0 0 1.492.304c.166-.07.316-.175.441-.305l4.528-4.757c.756-.755 1.172-1.759 1.172-2.828s-.417-2.073-1.171-2.828a3.96 3.96 0 0 0-2.827-1.172zm1.356 4c0 .356-.139.691-.415.967l-3.585 3.767-3.609-3.791c-.252-.252-.391-.587-.391-.943s.139-.691.392-.944c.241-.245.569-.385.913-.389.033.001.669.043 1.423.647q.162.13.329.296l.943.943.943-.943q.167-.166.329-.296c.705-.567 1.301-.637 1.403-.645a1.3 1.3 0 0 1 .934.389c.252.252.391.587.391.943z"/>
        </symbol>
        <symbol id="book" viewBox="0 0 32 32">
            <path d="M8 29.333h20v-2.667H8.016c-.616-.016-1.349-.26-1.349-1.333S7.4 24.016 8.016 24H28V5.333a2.67 2.67 0 0 0-2.667-2.667H8c-1.608 0-4 1.065-4 4v18.667c0 2.935 2.392 4 4 4M6.667 6.667C6.667 5.594 7.4 5.35 8 5.334h17.333v16H6.666z"/>
            <path d="M10.667 8h12v2.667h-12z"/>
        </symbol>
        <symbol id="star-fiiled" viewBox="0 0 24 24">
            <path d="M10.8851 0.778036C11.2976 -0.259346 12.7025 -0.259345 13.115 0.778038L15.5495 6.90085C15.7235 7.33819 16.1167 7.637 16.568 7.67485L22.8873 8.20479C23.9579 8.29457 24.3921 9.69221 23.5763 10.4231L18.7618 14.7371C18.4179 15.0453 18.2676 15.5288 18.3727 15.9895L19.8436 22.4398C20.0928 23.5327 18.9563 24.3965 18.0396 23.8109L12.6295 20.3542C12.243 20.1073 11.757 20.1073 11.3706 20.3542L5.9604 23.8109C5.04375 24.3965 3.90716 23.5327 4.15637 22.4398L5.62732 15.9895C5.73239 15.5288 5.5822 15.0453 5.23832 14.7371L0.423676 10.4231C-0.392062 9.69221 0.0420815 8.29457 1.11275 8.20479L7.43204 7.67485C7.88342 7.637 8.27661 7.33819 8.4505 6.90085L10.8851 0.778036Z" fill="currentColor" />
        </symbol>
        <symbol id="star-outline" viewBox="0 0 32 32">
            <path stroke-linejoin="miter" stroke-linecap="butt" stroke-miterlimit="4" stroke-width="2.6667" d="M16 1.333c0.050 0 0.095 0.014 0.131 0.038 0.031 0.020 0.078 0.062 0.116 0.159l3.246 8.164c0.41 1.030 1.355 1.772 2.486 1.867l8.426 0.707c0.066 0.005 0.104 0.026 0.135 0.053 0.038 0.033 0.080 0.090 0.105 0.172 0.052 0.168 0.008 0.314-0.1 0.411l-6.419 5.751c-0.829 0.743-1.174 1.887-0.93 2.96l1.962 8.6c0.043 0.187-0.028 0.32-0.128 0.396-0.051 0.039-0.098 0.052-0.13 0.055-0.024 0.002-0.065-0.001-0.13-0.043l-7.213-4.608c-0.953-0.609-2.162-0.609-3.115 0l-7.213 4.608c-0.066 0.042-0.106 0.045-0.13 0.043-0.032-0.002-0.079-0.016-0.13-0.055-0.1-0.076-0.17-0.209-0.128-0.396l1.962-8.6c0.245-1.073-0.1-2.216-0.93-2.96l-6.419-5.751c-0.108-0.097-0.152-0.244-0.1-0.411 0.025-0.082 0.068-0.139 0.105-0.172 0.031-0.027 0.070-0.048 0.135-0.053l8.426-0.707c1.13-0.095 2.076-0.837 2.486-1.867l3.246-8.164c0.038-0.096 0.085-0.139 0.116-0.159 0.036-0.024 0.081-0.038 0.131-0.038z"></path>
        </symbol>
        <symbol id="Company-Logo" viewBox="0 0 75 32">
            <path
                d="m16.441 10.036.012.01.654.544.001 10.078a601 601 0 0 1-6.972 5.669c-.148-.015-4-3.182-5.956-4.791l-.055-.045c-.501-.412-.87-.715-1.006-.825l-.007-10.08 6.965-5.707c.227.032 4.575 3.656 6.364 5.147m-3.008 2.059-.008-.013-.001-.002-.011-.017c-1.145-1.852-3.15-5.096-3.321-5.22l-4.042 6.44.009 4.47.813 1.334q.534.078 1.075.167c.73.118 1.466.237 2.191.297l.967-.145c.747-.113 1.494-.226 2.242-.326l.815-1.266v-4.543c-.097-.153-.369-.592-.729-1.175zm1.031 1.716c.284.356.529.792.765 1.214q.102.183.204.359l.101.172-.136.222-.141.229-.371.595-.43.698q0-.504-.006-1.008a60 60 0 0 1 .014-2.481m-3.225-7.663c-.334-.294-.744-.654-.99-.758l.007.331q.01.39.014.779a698 698 0 0 0 3.884 6.196c0-.063-.003-.162-.006-.284v-.02c-.016-.58-.044-1.635.104-1.79l.013-.012.011-.009.011-.009.13.057c.101.458.076 1.173.055 1.81v.009l-.001.039a16 16 0 0 0-.014.726q.259.43.524.858c.306.496.612.993.896 1.499l-1.418 2.277.003 1.459v1.124l2.352.001-.005-9.697a286 286 0 0 0-5.222-4.288l-.054-.044-.05-.042-.243-.212zm-1.328-.741.034.029c.068.202.049.513.033.783q-.01.15-.013.273l-3.923 6.26q.002-.146.008-.305l.004-.097.008-.19c.02-.473.041-.981-.011-1.379-.015-.111-.048-.152-.134-.217l-.091.017c-.137.213-.098 1.533-.076 2.253l.006.222.003.16q-.706 1.154-1.393 2.32l1.396 2.289-.006 1.309-.005 1.296-2.344-.003.009-9.689c1.397-1.205 2.837-2.367 4.276-3.529q1.116-.897 2.22-1.802zM8.406 19.615a14 14 0 0 0-1.32-.193l.339.544a198 198 0 0 1 2.675 4.378q.657-1.06 1.301-2.129.291-.47.579-.942c.381-.622.763-1.245 1.157-1.859a30 30 0 0 0-.849.139c-.772.133-1.659.286-2.239.271-.545-.015-1.094-.113-1.643-.211zm-2.362-.35.664.096q.67 1.106 1.351 2.206l.002.003.012.02a178 178 0 0 1 1.883 3.1l.001.487q.003.349.01.698l-1.324-1.083-4.997-4.076c.561.008 1.122.006 1.683.004l.71-.001c.013-.484.004-.969.003-1.454zm7.954.022-.025.002-.46.071-3.251 5.291-.013 1.22a156 156 0 0 1 1.42-1.146 313 313 0 0 0 4.895-4.009l-2.4.003q.002-.161.011-.333l.001-.01c.015-.354.03-.728-.041-1.051-.063-.047-.071-.046-.12-.04l-.019.002zM5.76 17.156l-.001.109-.347-.567c-.148-.271-.313-.537-.477-.802l-.218-.354c.203-.381.426-.753.648-1.125l.17-.285.167-.284c.116.177.082 2.004.064 2.938zm8.087 1.81.06-.108c.106-.19.213-.381.35-.55.012.175-.001.413-.032.556a1.4 1.4 0 0 1-.378.102m-7.786-.599c.163.201.283.433.41.658-.047-.006-.068-.007-.089-.011-.04-.008-.078-.024-.289-.091a2.5 2.5 0 0 1-.032-.556" />
            <path
                d="m13.433 12.095-.464-.751.456.738zm.721.6c0-.065-.003-.169-.006-.296v.006c.003.124.006.226.006.29m-8.103-.318-.002.07.003-.07zm-.294.84c-.001-.081-.005-.215-.01-.383l.006.222.003.16zm8.41 7.433.01-.274-.001.01-.009.265zm-8.465-6.803-.202.342.035-.058zm.056 3.417c0-.114.005-.371.011-.696l-.004.217zm43.771 7.61v-.667h.677q.348 0 .597-.09.249-.08.418-.289c.169-.209.209-.332.289-.577l1.772-5.695h.727l-1.852 5.904q-.159.508-.438.816-.279.318-.667.458c-.388.14-.554.139-.886.139h-.637zm1.712-2.18v-.627h.946v.627zm-.089 0-1.911-5.137h.767l1.842 5.137zm-5.246.129v-5.266h.597v2.2h-.06q0-1.155.508-1.702.507-.558 1.593-.557h.169v.677h-.309q-.856 0-1.304.448-.448.438-.448 1.294v2.907zm-2.582 0v-7.268h.747v7.268zm-.767-6.66v-.607h1.513v.607zm-3.05 6.829q-.677 0-1.175-.229a2.34 2.34 0 0 1-.816-.627 2.8 2.8 0 0 1-.478-.886q-.15-.488-.149-1.005v-.139q0-.507.149-.996.159-.488.478-.876c.319-.388.478-.465.796-.617a2.56 2.56 0 0 1 1.135-.239q.827 0 1.374.368.557.369.836.946.279.567.279 1.225v.388h-4.709v-.577h4.191l-.189.289q0-.587-.209-1.025a1.54 1.54 0 0 0-.597-.697q-.388-.26-.976-.259-.617 0-1.025.289c-.408.289-.478.448-.617.767q-.2.478-.199 1.085 0 .597.199 1.095.209.488.627.777.428.288 1.075.289.687 0 1.115-.309.427-.318.528-.747h.697a2 2 0 0 1-.418.916q-.318.378-.806.587c-.488.209-.697.209-1.115.209zm-13.566.426q-.677 0-1.175-.229a2.34 2.34 0 0 1-.816-.627 2.8 2.8 0 0 1-.478-.886q-.15-.488-.149-1.005v-.139q0-.507.149-.996.159-.488.478-.876c.319-.388.478-.465.796-.617a2.56 2.56 0 0 1 1.135-.239q.826 0 1.374.368.558.369.836.946.279.567.279 1.225v.388h-4.709v-.577h4.191l-.189.289q0-.587-.209-1.025a1.54 1.54 0 0 0-.597-.697q-.388-.26-.976-.259-.617 0-1.025.289c-.408.289-.478.448-.617.767q-.2.478-.199 1.085 0 .597.199 1.095.209.487.627.777.428.289 1.075.289.687 0 1.115-.309.427-.318.528-.747h.697a2 2 0 0 1-.418.916q-.318.378-.806.587c-.488.209-.697.209-1.115.209zm-6.149 1.852v-.667h.597q.389 0 .587-.229.209-.219.209-.637v-5.754h.717v5.615q0 .617-.169.986-.16.368-.518.528c-.358.16-.557.159-.956.159h-.468zm.538-6.69v-.597h1.573v.597zm.995-1.663q-.268 0-.408-.139-.129-.15-.129-.368c0-.218.043-.266.129-.358q.14-.15.408-.149c.268.001.312.05.398.149q.129.14.129.358c0 .218-.043.269-.129.368q-.13.14-.398.139m48.128-1.981q-.677 0-1.175-.229a2.34 2.34 0 0 1-.816-.627 2.8 2.8 0 0 1-.478-.886 3.4 3.4 0 0 1-.149-1.005v-.139q0-.507.149-.996.159-.487.478-.876c.319-.389.478-.465.796-.617a2.56 2.56 0 0 1 1.135-.239q.826 0 1.374.368.557.369.836.946.279.567.279 1.225v.388h-4.709v-.577h4.191l-.189.289q0-.588-.209-1.025a1.54 1.54 0 0 0-.597-.697q-.389-.26-.975-.259-.617 0-1.025.289c-.408.289-.478.448-.617.767q-.2.478-.199 1.085 0 .597.199 1.095.208.487.627.777.427.288 1.075.289.687 0 1.115-.309.428-.318.527-.747h.697a2 2 0 0 1-.418.916q-.319.378-.807.587c-.488.209-.697.209-1.115.209zm-6.745 0q-.578 0-1.055-.209a2.6 2.6 0 0 1-.816-.597 3 3 0 0 1-.528-.876 3.1 3.1 0 0 1-.179-1.055v-.139q0-.537.179-1.025.179-.498.508-.876.338-.388.806-.607a2.4 2.4 0 0 1 1.065-.229q.667 0 1.175.289c.508.289.611.471.816.836q.309.538.329 1.324l-.329-.617V7.501h.747v7.268h-.597v-2.34h.239q-.02.826-.348 1.394-.318.557-.846.836a2.4 2.4 0 0 1-1.165.279zm.1-.657q.537 0 .966-.239.438-.239.687-.677.249-.449.249-1.025v-.478q0-.558-.249-.976a1.75 1.75 0 0 0-.687-.667 2 2 0 0 0-.976-.239 1.81 1.81 0 0 0-1.692 1.056 2.54 2.54 0 0 0-.229 1.095q0 .627.239 1.115c.239.488.385.581.677.767q.438.269 1.015.269zm-4.624.488v-1.583h-.119v-1.872q0-.587-.309-.896-.309-.319-.956-.319a18 18 0 0 0-1.184.04 9 9 0 0 0-.478.03V9.51l.448-.04q.23-.02.468-.02.249-.01.478-.01.807 0 1.294.199.498.2.727.627.23.418.229 1.115v3.385zm-1.782.139q-.558 0-.986-.199c-.428-.199-.508-.325-.667-.577q-.23-.379-.229-.916 0-.527.239-.896.25-.368.707-.558.468-.2 1.125-.199h1.543v.567h-1.593q-.627 0-.966.309-.329.299-.329.786 0 .498.348.796.349.288.946.289.369 0 .707-.129.339-.14.567-.458.23-.329.249-.896l.219.309q-.04.587-.279.986-.239.389-.647.587c-.408.198-.591.199-.956.199zm-10.899-.139V9.491h.597v2.22h-.119q0-.727.199-1.254.209-.528.617-.816.408-.299 1.035-.299h.03q.627 0 1.035.289c.408.289.475.465.607.816q.2.528.199 1.264h-.239q0-.727.199-1.254.209-.528.617-.816.418-.299 1.045-.299h.03q.627 0 1.035.289.418.289.617.816.209.528.209 1.264v3.056h-.747v-3.226q0-.697-.338-1.105c-.338-.408-.551-.408-.976-.408q-.657 0-1.045.428-.378.418-.378 1.135v3.176h-.747v-3.226q0-.697-.339-1.105c-.339-.408-.551-.408-.976-.408q-.657 0-1.045.428-.378.418-.378 1.135v3.176H45.5zm-4.546.169q-.578 0-1.055-.209a2.6 2.6 0 0 1-.816-.597 3 3 0 0 1-.528-.876 3.1 3.1 0 0 1-.179-1.055v-.139q0-.537.179-1.025.179-.498.508-.876.338-.388.806-.607a2.4 2.4 0 0 1 1.065-.229q.667 0 1.175.289c.508.289.611.471.816.836q.308.538.329 1.324l-.329-.617V7.501h.747v7.268h-.597v-2.34h.239q-.02.826-.348 1.394-.318.557-.846.836a2.4 2.4 0 0 1-1.165.279zm.099-.657q.537 0 .966-.239.438-.239.687-.677.249-.449.249-1.025v-.478q0-.558-.249-.976a1.75 1.75 0 0 0-.687-.667 2 2 0 0 0-.976-.239 1.81 1.81 0 0 0-1.692 1.056 2.54 2.54 0 0 0-.229 1.095q0 .627.239 1.115c.239.488.385.581.677.767q.438.269 1.015.269zm-8.48.488V9.501h.597v2.21h-.119q0-.737.219-1.264c.219-.527.365-.624.657-.816q.438-.289 1.105-.289h.03q.996 0 1.483.627.488.617.488 1.742v3.056h-.737v-3.216q0-.687-.378-1.105c-.378-.418-.604-.418-1.055-.418q-.698 0-1.125.438-.418.428-.418 1.135v3.166zm-2.363 0v-1.583h-.119v-1.872q0-.587-.309-.896-.308-.319-.956-.319a18 18 0 0 0-1.184.04 9 9 0 0 0-.478.03V9.51l.448-.04q.23-.02.468-.02.249-.01.478-.01.807 0 1.294.199.498.2.727.627.23.418.229 1.115v3.385zm-1.782.139q-.557 0-.986-.199c-.429-.199-.508-.325-.667-.577q-.23-.379-.229-.916 0-.527.239-.896.25-.368.707-.558.468-.2 1.125-.199h1.543v.567H28.57q-.627 0-.966.309-.329.299-.329.786 0 .498.348.796.349.288.946.289.369 0 .707-.129.339-.14.567-.458.23-.329.249-.896l.219.309q-.04.587-.279.986-.239.389-.647.587c-.408.198-.591.199-.956.199zm-7.643-.139V7.499h.747v4.112l-.219.169q0-.737.209-1.284.22-.548.647-.846.438-.309 1.095-.309h.04q.955 0 1.444.627.498.627.498 1.742v3.056h-.737V11.55q0-.707-.388-1.115c-.388-.408-.607-.408-1.045-.408q-.706 0-1.125.458-.418.449-.418 1.185v3.096zm10.365 7.9 1.045-4.733h.971l1.211 4.733h-.601l-1.211-4.705h.222l-1.054 4.705zm-.397 0v-.564h.841v.564zm-.166 0-1.414-4.89h.666l1.396 4.89zm3.346 0v-.564h.823v.564zm.361 0 1.22-4.89h.638l-1.248 4.89z" />
        </symbol>
        <symbol id="icon-logo" viewBox="0 0 101 32">
            <path d="M19.323 7.547l0.017 0.014 0.177 0.147 0.141 0.118 0.625 0.518v14.513c-1.844 1.564-5.111 4.236-8.398 6.885l-1.641 1.279c-0.214-0.022-5.76-4.582-8.576-6.899l-0.079-0.065c-0.722-0.594-1.253-1.030-1.449-1.189l-0.010-14.515 10.030-8.216c0.326 0.046 6.588 5.265 9.165 7.412zM14.991 10.513l-0.012-0.018-0.001-0.003-0.015-0.026c-1.649-2.668-4.536-7.338-4.783-7.516l-5.82 9.272 0.013 6.437 1.171 1.92q0.768 0.111 1.548 0.241c1.052 0.169 2.111 0.34 3.155 0.428l1.393-0.21c1.075-0.163 2.15-0.325 3.229-0.468l1.174-1.824v-6.541c-0.141-0.22-0.532-0.854-1.050-1.693zM16.477 12.983l0.002-0.116c-0.021 0.787-0.032 1.578-0.032 2.37 0 0.464 0.004 0.926 0.010 1.319 0.005 0.484 0.214 0.633 0.008 1.452l0.62-1.005c0.18-0.285 0.443-0.87 0.534-0.858l0.205-0.329 0.195-0.32-0.145-0.247c-0.098-0.17-0.196-0.343-0.294-0.518-0.34-0.608-0.692-1.236-1.102-1.748zM11.834 1.949c-0.483-0.426-1.073-0.945-1.427-1.096l0.012 0.476q0.013 0.561 0.020 1.123 2.772 4.475 5.592 8.922c0-0.091-0.005-0.234-0.010-0.41v-0.028c-0.022-0.835-0.063-2.355 0.151-2.578l0.018-0.017 0.015-0.013 0.017-0.013 0.188 0.082c0.145 0.659 0.11 1.69 0.078 2.606v0.013l-0.003 0.056c-0.013 0.383-0.023 0.742-0.020 1.046q0.371 0.62 0.755 1.236c0.44 0.713 0.881 1.428 1.29 2.158l-2.042 3.278 0.005 2.102v1.618l3.386 0.001-0.008-13.964c-1.822-1.553-4.268-3.573-6.739-5.565l-0.78-0.609-0.078-0.064-0.072-0.060q-0.159-0.137-0.351-0.306zM9.92 0.883c-1.060 0.867-2.126 1.732-3.197 2.595-2.071 1.673-4.145 3.347-6.157 5.082l-0.013 13.952 3.377 0.005 0.006-1.866 0.008-1.885-2.010-3.296c0.659-1.119 1.323-2.416 2.006-3.341l-0.004-0.23-0.010-0.32c-0.031-1.036-0.087-2.936 0.11-3.244l0.132-0.026c0.124 0.095 0.172 0.152 0.193 0.312 0.076 0.573 0.045 1.304 0.017 1.987l-0.013 0.273-0.006 0.138c-0.006 0.153 1.874-2.71-0.010 0.439l5.65-9.016 0-0.011c0.003-0.138 0.010-0.274 0.018-0.382 0.023-0.388 0.051-0.836-0.047-1.126l-0.049-0.041zM7.752 21.34c-0.635-0.114-1.27-0.227-1.901-0.278l0.488 0.783c0.625 0.907 1.899 2.964 3.147 5.040l0.706 1.265q0.945-1.526 1.873-3.066 0.42-0.676 0.835-1.356c0.549-0.896 1.098-1.792 1.667-2.675-0.355 0.049-0.774 0.122-1.222 0.198-1.111 0.192-2.39 0.413-3.226 0.39-0.783-0.022-1.574-0.163-2.365-0.303zM4.351 20.836c0.001 0.698 0.014 1.396-0.004 2.093l-1.024 0.003c-0.808 0.003-1.617 0.005-2.423-0.006l9.102 7.428 0.002 0.078c-0.013-0.528-0.020-1.058-0.020-1.59 0-0.068 0-0.137 0-0.195l-0.651-1.166c-0.882-1.466-1.779-2.922-2.059-3.296l-0.018-0.029-0.003-0.004c-0.654-1.056-3.072-9.107-1.946-3.177l-0.956-0.138zM15.804 20.868l-0.036 0.003-0.662 0.102-4.681 7.619-0.018 1.757c0.251-0.216 0.917-0.757 1.586-1.294l0.46-0.357c3.178-2.543 5.472-4.432 7.747-6.343l-0.698 0.571-3.456 0.004q0.005-0.232 0.015-0.479v-0.014c0.022-0.509 0.045-1.050-0.058-1.513-0.091-0.069-0.102-0.068-0.173-0.059zM3.951 17.266c0.026-1.345 0.074-3.976-0.092-4.232l-0.241 0.41-0.244 0.41c-0.321 0.535-0.641 1.071-0.933 1.619l0.312 0.511-0.055-0.091c0.238 0.37 0.466 0.747 0.742 1.246l0.5 0.818 0.001-0.157zM15.588 20.406l0.010-0.001c0.192-0.025 0.376-0.077 0.534-0.146 0.046-0.206 0.064-0.549 0.046-0.801-0.197 0.244-0.351 0.52-0.504 0.792l-0.086 0.156zM4.376 19.544l0-0.010c-0.004 0.070-0.006 0.141-0.006 0.212 0 0.211 0.019 0.418 0.052 0.597 0.303 0.096 0.358 0.119 0.416 0.131 0.031 0.006 0.061 0.009 0.128 0.017-0.182-0.324-0.355-0.658-0.591-0.947z"></path>
            <path d="M14.991 10.511l-0.668-1.080 0.657 1.062z"></path>
            <path d="M16.029 11.375c0-0.095-0.004-0.243-0.009-0.428v0.010c0.005 0.179 0.009 0.325 0.009 0.417z"></path>
            <path d="M4.362 10.918l-0.004 0.1zM3.94 12.127c-0.001-0.115-0.008-0.31-0.015-0.55l0.009 0.32q0.005 0.141 0.005 0.23z"></path>
            <path d="M16.049 22.83q0.005-0.192 0.013-0.394v0.013q-0.008 0.196-0.013 0.381z"></path>
            <path d="M3.859 13.036q-0.143 0.246-0.291 0.492l0.051-0.083zM3.94 17.955c0-0.164 0.009-0.534 0.017-1.001l-0.005 0.312c-0.006 0.317-0.012 0.563-0.012 0.689z"></path>
            <path d="M66.97 28.913v-0.96h0.974q0.503 0 0.86-0.128c0.244-0.081 0.448-0.226 0.6-0.415l0.002-0.002q0.244-0.3 0.417-0.832l2.551-8.2h1.047l-2.666 8.502q-0.23 0.73-0.631 1.175-0.403 0.461-0.96 0.66c-0.365 0.127-0.786 0.2-1.223 0.2-0.019 0-0.037-0-0.056-0l0.003 0zM69.435 25.774v-0.904h1.362v0.904zM69.307 25.774l-2.752-7.398h1.102l2.652 7.398zM61.752 25.96v-7.584h0.86v3.169h-0.086q0-1.664 0.731-2.452 0.73-0.803 2.294-0.803h0.243v0.975h-0.444q-1.231 0-1.878 0.645-0.645 0.63-0.645 1.864v4.186zM58.034 25.96v-10.465h1.075v10.465zM56.931 16.369v-0.874h2.179v0.874zM52.538 26.204q-0.975 0-1.691-0.33c-0.466-0.22-0.859-0.525-1.172-0.898l-0.004-0.005c-0.291-0.363-0.525-0.786-0.679-1.246l-0.008-0.029c-0.136-0.428-0.215-0.92-0.215-1.43 0-0.007 0-0.013 0-0.020v0.001-0.2q0-0.732 0.215-1.434 0.23-0.704 0.687-1.262 0.461-0.559 1.147-0.888 0.704-0.346 1.635-0.346 1.19 0 1.979 0.531 0.803 0.53 1.203 1.362 0.402 0.818 0.402 1.764v0.559h-6.781v-0.832h6.036l-0.273 0.416q0-0.845-0.301-1.477c-0.184-0.42-0.48-0.763-0.851-0.998l-0.009-0.005q-0.559-0.372-1.405-0.372-0.89 0-1.477 0.416c-0.389 0.278-0.693 0.651-0.882 1.087l-0.007 0.017c-0.182 0.446-0.287 0.964-0.287 1.506 0 0.020 0 0.040 0 0.059l-0-0.003q0 0.86 0.287 1.577 0.301 0.703 0.904 1.119 0.614 0.415 1.549 0.415 0.987 0 1.605-0.444 0.616-0.46 0.759-1.075h1.004q-0.143 0.76-0.602 1.318c-0.311 0.364-0.699 0.651-1.141 0.838l-0.020 0.008c-0.457 0.191-0.988 0.303-1.545 0.303-0.022 0-0.043-0-0.065-0l0.003 0zM33.004 26.816q-0.975 0-1.692-0.329c-0.466-0.219-0.858-0.524-1.171-0.897l-0.004-0.005c-0.291-0.363-0.526-0.787-0.68-1.247l-0.008-0.029c-0.136-0.428-0.215-0.92-0.215-1.43 0-0.006 0-0.012 0-0.018v0.001-0.201q0-0.73 0.215-1.434 0.23-0.701 0.689-1.262 0.458-0.557 1.146-0.888 0.704-0.346 1.635-0.344 1.19 0 1.979 0.531 0.804 0.53 1.203 1.362 0.403 0.815 0.402 1.763v0.559h-6.779v-0.832h6.035l-0.273 0.416q0-0.845-0.301-1.477c-0.184-0.42-0.48-0.763-0.851-0.998l-0.009-0.005q-0.559-0.371-1.405-0.371-0.888 0-1.476 0.415c-0.39 0.278-0.694 0.652-0.883 1.088l-0.006 0.017c-0.182 0.446-0.287 0.964-0.287 1.506 0 0.019 0 0.039 0 0.058l-0-0.003q0 0.86 0.287 1.577 0.301 0.703 0.904 1.119 0.616 0.416 1.549 0.416 0.988 0 1.605-0.445 0.617-0.457 0.759-1.075h1.005q-0.145 0.76-0.602 1.318c-0.311 0.364-0.7 0.652-1.142 0.84l-0.020 0.008c-0.456 0.191-0.986 0.301-1.542 0.301-0.023 0-0.045-0-0.068-0.001l0.003 0zM24.148 29.484v-0.96h0.86q0.558 0 0.845-0.33 0.302-0.315 0.302-0.918v-8.285h1.032v8.086q0 0.888-0.243 1.418-0.23 0.531-0.746 0.76-0.515 0.23-1.376 0.23zM24.923 19.85v-0.86h2.266v0.86zM26.356 17.457q-0.388 0-0.589-0.202c-0.116-0.134-0.186-0.309-0.186-0.501 0-0.010 0-0.020 0.001-0.030l-0 0.001c-0-0.009-0.001-0.019-0.001-0.029 0-0.187 0.071-0.358 0.187-0.488l-0.001 0.001q0.201-0.215 0.589-0.215 0.387 0 0.572 0.215c0.116 0.129 0.187 0.3 0.187 0.488 0 0.010-0 0.019-0.001 0.029l0-0.001c0 0.008 0 0.018 0 0.027 0 0.193-0.071 0.369-0.188 0.504l0.001-0.001q-0.186 0.201-0.573 0.201zM95.661 14.602q-0.974 0-1.692-0.329c-0.466-0.22-0.858-0.525-1.171-0.898l-0.004-0.005c-0.293-0.362-0.528-0.786-0.679-1.248l-0.008-0.028c-0.136-0.428-0.215-0.92-0.215-1.43 0-0.006 0-0.011 0-0.017v0.001-0.202q0-0.73 0.215-1.434 0.228-0.703 0.687-1.261 0.461-0.559 1.147-0.89 0.704-0.344 1.635-0.344 1.19 0 1.978 0.531 0.804 0.529 1.204 1.362 0.402 0.817 0.402 1.763v0.559h-6.781v-0.832h6.035l-0.271 0.416q0-0.845-0.301-1.476c-0.184-0.42-0.48-0.763-0.851-0.998l-0.009-0.005q-0.559-0.372-1.405-0.372-0.89 0-1.477 0.415c-0.389 0.278-0.693 0.652-0.882 1.088l-0.006 0.017q-0.288 0.687-0.287 1.562 0 0.861 0.287 1.578 0.301 0.703 0.904 1.117 0.614 0.416 1.549 0.416 0.987 0 1.605-0.444 0.616-0.46 0.759-1.075h1.004q-0.143 0.762-0.602 1.318c-0.311 0.364-0.699 0.651-1.141 0.838l-0.020 0.008c-0.456 0.191-0.986 0.301-1.542 0.301-0.023 0-0.045-0-0.068-0.001l0.003 0zM85.947 14.602c-0.016 0-0.035 0-0.055 0-0.529 0-1.033-0.111-1.489-0.311l0.024 0.009c-0.46-0.216-0.85-0.505-1.174-0.857l-0.002-0.003c-0.313-0.358-0.57-0.776-0.749-1.232l-0.010-0.029c-0.164-0.447-0.259-0.962-0.259-1.5 0-0.007 0-0.014 0-0.022v0.001-0.2q0-0.776 0.259-1.477 0.259-0.717 0.73-1.262 0.489-0.558 1.162-0.874c0.435-0.208 0.945-0.329 1.484-0.329 0.018 0 0.036 0 0.054 0l-0.003-0q0.96 0 1.691 0.415 0.73 0.416 1.176 1.204 0.443 0.774 0.474 1.907l-0.474-0.89v-5.261h1.075v10.465h-0.86v-3.369h0.343q-0.028 1.19-0.502 2.007c-0.286 0.513-0.701 0.923-1.203 1.195l-0.016 0.008c-0.469 0.253-1.026 0.402-1.618 0.402-0.020 0-0.041-0-0.061-0.001l0.003 0zM86.090 13.656q0.774 0 1.39-0.344 0.631-0.344 0.989-0.974 0.358-0.645 0.358-1.477v-0.687q0-0.804-0.358-1.405c-0.238-0.407-0.574-0.733-0.976-0.953l-0.013-0.007c-0.39-0.218-0.856-0.346-1.353-0.346-0.018 0-0.036 0-0.054 0l0.003-0q-0.845 0-1.477 0.417-0.614 0.401-0.96 1.103c-0.209 0.45-0.331 0.976-0.331 1.531 0 0.016 0 0.032 0 0.048l-0-0.002q0 0.902 0.344 1.605 0.346 0.704 0.974 1.105 0.631 0.387 1.463 0.387zM79.434 14.359v-2.278h-0.173v-2.697q0-0.847-0.444-1.29-0.444-0.461-1.376-0.46-0.43 0-0.874 0.014-0.429 0.015-0.832 0.044c-0.26 0.009-0.499 0.024-0.735 0.047l0.047-0.004v-0.947l0.645-0.056q0.33-0.029 0.675-0.029 0.358-0.013 0.687-0.014 1.161 0 1.864 0.287 0.717 0.287 1.047 0.904 0.33 0.602 0.33 1.605v4.874zM76.868 14.56q-0.803 0-1.42-0.287c-0.4-0.183-0.727-0.469-0.955-0.823l-0.005-0.009q-0.33-0.545-0.33-1.318 0-0.76 0.344-1.29 0.358-0.531 1.018-0.803 0.675-0.288 1.62-0.287h2.222v0.817h-2.294q-0.902 0-1.391 0.444-0.474 0.431-0.474 1.133 0 0.717 0.503 1.147 0.502 0.415 1.362 0.416 0.53 0 1.018-0.187 0.486-0.2 0.817-0.659 0.33-0.472 0.358-1.29l0.316 0.444q-0.058 0.845-0.402 1.42-0.346 0.559-0.932 0.845-0.588 0.288-1.376 0.288zM61.171 14.359v-7.598h0.86v3.197h-0.173q0-1.048 0.287-1.807 0.301-0.759 0.89-1.175 0.588-0.43 1.49-0.43h0.044q0.904 0 1.491 0.416 0.589 0.415 0.874 1.175t0.287 1.821h-0.344q0-1.048 0.287-1.807 0.301-0.759 0.89-1.175 0.602-0.43 1.505-0.43h0.042q0.904 0 1.491 0.416 0.602 0.415 0.888 1.175 0.302 0.76 0.302 1.821v4.401h-1.075v-4.645q0-1.004-0.488-1.591t-1.405-0.589q-0.947 0-1.505 0.617-0.544 0.603-0.544 1.635v4.573h-1.075v-4.645q0-1.004-0.488-1.591t-1.405-0.589q-0.947 0-1.505 0.617-0.544 0.603-0.544 1.635v4.573zM54.625 14.602c-0.016 0-0.035 0-0.055 0-0.529 0-1.033-0.111-1.489-0.311l0.024 0.009c-0.46-0.216-0.85-0.505-1.174-0.857l-0.002-0.003c-0.313-0.358-0.57-0.776-0.749-1.232l-0.010-0.029c-0.164-0.447-0.259-0.962-0.259-1.5 0-0.007 0-0.014 0-0.022v0.001-0.2q0-0.776 0.259-1.477 0.257-0.717 0.73-1.262 0.489-0.558 1.162-0.874c0.435-0.208 0.945-0.329 1.484-0.329 0.017 0 0.035 0 0.052 0l-0.003-0q0.96 0 1.692 0.415 0.73 0.416 1.175 1.204 0.445 0.774 0.474 1.907l-0.474-0.89v-5.261h1.075v10.465h-0.86v-3.369h0.346q-0.031 1.19-0.503 2.007c-0.286 0.513-0.701 0.923-1.203 1.195l-0.016 0.008c-0.469 0.253-1.026 0.402-1.618 0.402-0.020 0-0.041-0-0.061-0.001l0.003 0zM54.769 13.656q0.774 0 1.39-0.344 0.631-0.344 0.989-0.974 0.358-0.645 0.358-1.477v-0.687q0-0.804-0.358-1.405c-0.238-0.407-0.574-0.733-0.976-0.953l-0.013-0.007c-0.39-0.218-0.857-0.346-1.353-0.346-0.019 0-0.037 0-0.056 0.001l0.003-0q-0.845 0-1.476 0.417-0.616 0.401-0.96 1.103c-0.209 0.45-0.331 0.976-0.331 1.531 0 0.016 0 0.032 0 0.048l-0-0.002q0 0.902 0.344 1.605 0.344 0.704 0.974 1.105 0.632 0.387 1.463 0.387zM42.557 14.359v-7.584h0.86v3.183h-0.172q0-1.062 0.315-1.821 0.314-0.76 0.947-1.175 0.63-0.416 1.59-0.416h0.044q1.434 0 2.136 0.904 0.703 0.887 0.703 2.509v4.401h-1.062v-4.631q0-0.989-0.544-1.591-0.545-0.602-1.519-0.602-1.004 0-1.62 0.631-0.602 0.614-0.602 1.633v4.559zM39.155 14.359v-2.278h-0.172v-2.697q0-0.847-0.445-1.29-0.444-0.461-1.376-0.46c-0.603 0.001-1.198 0.022-1.789 0.062l0.082-0.004c-0.26 0.009-0.498 0.024-0.734 0.047l0.047-0.004v-0.947q0.315-0.029 0.645-0.056 0.329-0.029 0.673-0.029 0.358-0.013 0.689-0.014 1.16 0 1.864 0.287 0.717 0.287 1.046 0.904 0.33 0.602 0.33 1.605v4.874zM36.589 14.56q-0.803 0-1.42-0.287c-0.4-0.183-0.727-0.469-0.955-0.823l-0.005-0.009q-0.33-0.545-0.33-1.318 0-0.76 0.346-1.29 0.356-0.531 1.016-0.803 0.673-0.288 1.62-0.287h2.222v0.817h-2.294q-0.902 0-1.391 0.444-0.474 0.431-0.474 1.133 0 0.717 0.503 1.147 0.502 0.415 1.362 0.416 0.53 0 1.018-0.187 0.488-0.2 0.818-0.659 0.329-0.472 0.358-1.29l0.315 0.444q-0.058 0.845-0.402 1.42-0.344 0.559-0.932 0.845-0.588 0.288-1.376 0.288zM25.582 14.359v-10.465h1.075v5.921l-0.315 0.243q0-1.061 0.301-1.85 0.315-0.787 0.932-1.219 0.632-0.444 1.577-0.444h0.058q1.376 0 2.079 0.904 0.717 0.902 0.717 2.509v4.401h-1.061v-4.631q0-1.018-0.559-1.605-0.558-0.589-1.505-0.589-1.018 0-1.619 0.66-0.602 0.645-0.602 1.706v4.458zM40.509 25.734l1.504-6.816h1.398l1.743 6.816h-0.865l-1.743-6.775h0.32l-1.518 6.775zM39.936 25.734v-0.812h1.212v0.812zM39.697 25.734l-2.036-7.041h0.959l2.010 7.041zM44.516 25.734v-0.812h1.184v0.812zM45.036 25.734l1.756-7.041h0.919l-1.797 7.041z"></path>
        </symbol>
        <symbol id="close" viewBox="0 0 24 24">
            <path d="M16.192 6.34424L11.949 10.5862L7.70697 6.34424L6.29297 7.75824L10.535 12.0002L6.29297 16.2422L7.70697 17.6562L11.949 13.4142L16.192 17.6562L17.606 16.2422L13.364 12.0002L17.606 7.75824L16.192 6.34424Z" fill="black"/>
        </symbol>
    </defs>
</svg>