<svg xmlns="http://www.w3.org/2000/svg" aria-hidden="true" style="position:absolute;width:0;height:0;overflow:hidden"><defs><symbol id="Youtube" viewBox="0 0 32 32"><path d="M28.791 9.604a3.35 3.35 0 0 0-2.35-2.354C24.353 6.677 16 6.667 16 6.667s-8.352-.009-10.441.539a3.42 3.42 0 0 0-2.354 2.371c-.551 2.088-.556 6.419-.556 6.419s-.005 4.352.541 6.419a3.34 3.34 0 0 0 2.351 2.353c2.109.573 10.44.583 10.44.583s8.353.009 10.441-.537a3.36 3.36 0 0 0 2.356-2.35c.552-2.087.556-6.416.556-6.416s.027-4.353-.543-6.441zM13.328 20.007l.007-8 6.943 4.007z"/></symbol><symbol id="X" viewBox="0 0 32 32"><path d="M22.901 5.657h3.68l-8.04 9.037L28 26.991h-7.406l-5.801-7.458-6.637 7.458H4.474l8.6-9.666L4 5.657h7.594l5.243 6.817zM21.61 24.824h2.039L10.486 7.709H8.298z"/></symbol><symbol id="phone" viewBox="0 0 32 32"><path d="M23.61 16.391a1.34 1.34 0 0 0-.942-.391 1.33 1.33 0 0 0-.942.391l-2.125 2.125c-.985-.293-2.824-.96-3.989-2.125s-1.832-3.004-2.125-3.989l2.125-2.125a1.34 1.34 0 0 0 .391-.942 1.33 1.33 0 0 0-.391-.942L10.279 3.06a1.34 1.34 0 0 0-.942-.391 1.33 1.33 0 0 0-.942.391L4.779 6.676a2.66 2.66 0 0 0-.781 1.913c.031 1.899.533 8.493 5.731 13.691s11.792 5.699 13.692 5.731h.037c.704 0 1.369-.277 1.873-.781l3.616-3.616a1.34 1.34 0 0 0 .391-.942 1.33 1.33 0 0 0-.391-.942l-5.333-5.335zm-.17 8.949c-1.664-.028-7.357-.475-11.831-4.949C7.121 15.903 6.686 10.19 6.66 8.559l2.673-2.673 3.448 3.448-1.724 1.724a1.33 1.33 0 0 0-.362 1.216c.032.153.815 3.789 3.028 6.003s5.849 2.996 6.003 3.028a1.32 1.32 0 0 0 1.216-.361l1.725-1.724 3.448 3.448-2.675 2.673z"/></symbol><symbol id="menu" viewBox="0 0 32 32"><path d="M5.333 8h21.333v2.667H5.333zm0 6.667h21.333v2.667H5.333zm0 6.666h21.333V24H5.333z"/></symbol><symbol id="map" viewBox="0 0 32 32"><path d="M16 18.667c2.941 0 5.333-2.392 5.333-5.333S18.941 8.001 16 8.001s-5.333 2.392-5.333 5.333 2.392 5.333 5.333 5.333m0-8c1.471 0 2.667 1.196 2.667 2.667S17.471 16.001 16 16.001s-2.667-1.196-2.667-2.667 1.196-2.667 2.667-2.667"/><path d="M15.227 29.085a1.33 1.33 0 0 0 1.546 0c.405-.287 9.932-7.165 9.893-15.752 0-5.881-4.785-10.667-10.667-10.667S5.332 7.451 5.332 13.326c-.039 8.593 9.488 15.472 9.893 15.759zM16 5.333c4.412 0 8 3.588 8 8.007.028 5.917-5.851 11.231-8 12.973-2.148-1.744-8.028-7.059-8-12.98 0-4.412 3.588-8 8-8"/></symbol><symbol id="LinkedIn" viewBox="0 0 32 32"><path d="M25.75 4H6.25A2.257 2.257 0 0 0 4 6.25v19.5A2.257 2.257 0 0 0 6.25 28h19.5A2.257 2.257 0 0 0 28 25.75V6.25A2.257 2.257 0 0 0 25.75 4M13 23.5h-3V13h3zm-1.5-12a1.5 1.5 0 1 1-.001-2.999A1.5 1.5 0 0 1 11.5 11.5m12 12h-3v-6a1.5 1.5 0 1 0-3 0v6h-3V13h3v1.861c.619-.848 1.565-1.861 2.625-1.861 1.866 0 3.375 1.679 3.375 3.75z"/></symbol><symbol id="leaf" viewBox="0 0 32 32"><path d="m29.173 2.867-1.6.533a18.45 18.45 0 0 1-8.547.853 15.83 15.83 0 0 0-8.907 1.2 9.64 9.64 0 0 0-5.72 7.214 11.53 11.53 0 0 0 1.96 8.8c-.08.28-.16.56-.227.84a30 30 0 0 0-.8 7.027h2.667c.125-1.936.388-3.861.787-5.76a12.34 12.34 0 0 0 6.027 1.48 14.7 14.7 0 0 0 5.707-1.16c10.147-4.333 8.813-18.747 8.813-19.347zM19.48 21.44c-3.48 1.48-7.64 1.227-9.973-.6a18.4 18.4 0 0 1 1.613-3.787 13.6 13.6 0 0 1 1.853-2.387 12 12 0 0 1 2.413-1.893 16 16 0 0 1 5.947-2.107V9.333a15.24 15.24 0 0 0-7.013 1.44 13.7 13.7 0 0 0-5.493 4.867 20 20 0 0 0-1.333 2.493 9.34 9.34 0 0 1-.507-4.973 6.99 6.99 0 0 1 4.187-5.334 11.9 11.9 0 0 1 5.093-1.12c.827 0 1.64.08 2.493.147a21.6 21.6 0 0 0 8-.467c-.093 3.68-.76 12.28-7.28 15.053z"/></symbol><symbol id="Instagram" viewBox="0 0 32 32"><path d="M15.998 6.161c3.206 0 3.585.014 4.846.071 1.172.052 1.804.248 2.226.412.558.216.961.478 1.378.895.422.422.679.82.9 1.378.164.422.361 1.059.412 2.226.056 1.266.071 1.645.071 4.847s-.014 3.585-.071 4.847c-.052 1.172-.248 1.804-.412 2.227a3.7 3.7 0 0 1-.895 1.377c-.422.422-.82.679-1.378.9-.422.164-1.06.361-2.226.412-1.266.056-1.645.071-4.847.071s-3.585-.014-4.847-.071c-1.172-.052-1.804-.248-2.226-.412a3.7 3.7 0 0 1-1.378-.895 3.8 3.8 0 0 1-.9-1.378c-.164-.422-.361-1.06-.412-2.226-.056-1.266-.071-1.645-.071-4.847s.014-3.585.071-4.847c.052-1.172.248-1.804.412-2.226.216-.558.478-.961.895-1.378.422-.422.82-.679 1.378-.9.422-.164 1.059-.361 2.226-.412 1.261-.056 1.641-.071 4.847-.071zm0-2.16c-3.258 0-3.665.014-4.945.071-1.275.056-2.151.262-2.91.558a5.85 5.85 0 0 0-2.127 1.387A5.9 5.9 0 0 0 4.629 8.14c-.295.764-.502 1.636-.558 2.91C4.015 12.335 4 12.742 4 15.999s.014 3.665.071 4.945c.056 1.275.262 2.151.558 2.91a5.9 5.9 0 0 0 1.387 2.127 5.9 5.9 0 0 0 2.123 1.383c.764.295 1.636.502 2.91.558 1.279.056 1.687.071 4.945.071s3.666-.014 4.945-.071c1.275-.056 2.151-.262 2.91-.558.787-.305 1.458-.717 2.123-1.383s1.078-1.336 1.383-2.123c.295-.764.502-1.635.558-2.91.056-1.279.071-1.687.071-4.945s-.014-3.665-.071-4.945c-.056-1.275-.262-2.151-.558-2.91a5.6 5.6 0 0 0-1.373-2.133 5.9 5.9 0 0 0-2.123-1.383c-.764-.295-1.635-.502-2.91-.558-1.284-.061-1.692-.075-4.949-.075L15.999 4z"/><path d="M15.998 9.836a6.164 6.164 0 1 0 6.163 6.163 6.164 6.164 0 0 0-6.163-6.163m0 10.161a3.998 3.998 0 1 1 0-7.996 3.998 3.998 0 0 1 0 7.996m7.845-10.405a1.439 1.439 0 1 1-2.877 0 1.439 1.439 0 0 1 2.877 0"/></symbol><symbol id="Facebook" viewBox="0 0 32 32"><path d="M29.333 16.405C29.333 8.996 23.364 2.99 16 2.99S2.667 8.996 2.667 16.405c0 6.696 4.876 12.245 11.25 13.252v-9.374h-3.385v-3.878h3.385V13.45c0-3.362 1.991-5.219 5.036-5.219 1.459 0 2.985.262 2.985.262v3.301h-1.681c-1.656 0-2.173 1.034-2.173 2.095v2.516h3.698l-.591 3.878h-3.107v9.374c6.374-1.006 11.25-6.556 11.25-13.252z"/></symbol><symbol id="envelope" viewBox="0 0 32 32"><path d="M26.667 5.333H5.334A2.67 2.67 0 0 0 2.667 8v16a2.67 2.67 0 0 0 2.667 2.667h21.333A2.67 2.67 0 0 0 29.334 24V8a2.67 2.67 0 0 0-2.667-2.667m0 2.667v.681L16 16.978 5.333 8.682v-.683h21.333zM5.333 24V12.059l9.848 7.66a1.33 1.33 0 0 0 1.638 0l9.848-7.66L26.67 24z"/></symbol><symbol id="donate-heart" viewBox="0 0 32 32"><path d="M5.333 28H18.16a5.33 5.33 0 0 0 4.05-1.862l6.803-7.936a1.34 1.34 0 0 0 .274-1.224 1.33 1.33 0 0 0-.863-.91l-2.624-.875a4.06 4.06 0 0 0-3.764.67l-4.247 3.396-.823-1.647a5.31 5.31 0 0 0-4.77-2.947H5.335a2.67 2.67 0 0 0-2.667 2.667v8a2.67 2.67 0 0 0 2.667 2.667zm0-10.667h6.861a2.65 2.65 0 0 1 2.385 1.473l.596 1.193H9.332v2.667h8.019c.205-.003.407-.053.589-.147l.004-.001.005-.003h.004l.003-.001h.005l.001-.001c.012.004.004-.001.004-.001.013 0 .003-.001.003-.001h.001l.003-.001.004-.001.005-.003.004-.001.003-.001q.005 0 .003-.001l.004-.003.005-.003.004-.001.003-.001h.001l.003-.001.004-.001.003-.001c.012-.001.004-.001.004-.001l.003-.001q.076-.047.147-.104l5.528-4.423a1.35 1.35 0 0 1 1.253-.223l.743.248-5.511 6.431a2.7 2.7 0 0 1-2.027.918H5.332v-8zM21.311 2.667c-.217.003-1.341.052-2.644.94-1.268-.864-2.365-.933-2.624-.939l-.04-.001h-.005a3.97 3.97 0 0 0-2.825 1.171c-.755.756-1.172 1.76-1.172 2.829s.417 2.073 1.148 2.805l4.552 4.781a1.34 1.34 0 0 0 1.492.304c.166-.07.316-.175.441-.305l4.528-4.757c.756-.755 1.172-1.759 1.172-2.828s-.417-2.073-1.171-2.828a3.96 3.96 0 0 0-2.827-1.172zm1.356 4c0 .356-.139.691-.415.967l-3.585 3.767-3.609-3.791c-.252-.252-.391-.587-.391-.943s.139-.691.392-.944c.241-.245.569-.385.913-.389.033.001.669.043 1.423.647q.162.13.329.296l.943.943.943-.943q.167-.166.329-.296c.705-.567 1.301-.637 1.403-.645a1.3 1.3 0 0 1 .934.389c.252.252.391.587.391.943z"/></symbol><symbol id="book" viewBox="0 0 32 32"><path d="M8 29.333h20v-2.667H8.016c-.616-.016-1.349-.26-1.349-1.333S7.4 24.016 8.016 24H28V5.333a2.67 2.67 0 0 0-2.667-2.667H8c-1.608 0-4 1.065-4 4v18.667c0 2.935 2.392 4 4 4M6.667 6.667C6.667 5.594 7.4 5.35 8 5.334h17.333v16H6.666z"/><path d="M10.667 8h12v2.667h-12z"/></symbol><symbol id="star-outline" viewBox="0 0 32 32"><path stroke-width="2.667" d="M16 1.333q.076.001.131.038c.031.02.078.062.116.159l3.246 8.164a2.95 2.95 0 0 0 2.486 1.867l8.426.707a.2.2 0 0 1 .135.053.37.37 0 0 1 .105.172c.052.168.008.314-.1.411l-6.419 5.751a3.07 3.07 0 0 0-.93 2.96l1.962 8.6c.043.187-.028.32-.128.396a.26.26 0 0 1-.13.055c-.024.002-.065-.001-.13-.043l-7.213-4.608a2.88 2.88 0 0 0-3.115 0l-7.213 4.608c-.066.042-.106.045-.13.043a.25.25 0 0 1-.13-.055c-.1-.076-.17-.209-.128-.396l1.962-8.6a3.07 3.07 0 0 0-.93-2.96l-6.419-5.751c-.108-.097-.152-.244-.1-.411a.4.4 0 0 1 .105-.172.22.22 0 0 1 .135-.053l8.426-.707a2.95 2.95 0 0 0 2.486-1.867l3.246-8.164a.3.3 0 0 1 .116-.159.24.24 0 0 1 .131-.038z"/></symbol><symbol id="star-fiiled" viewBox="0 0 32 32"><path d="M14.513 1.037a1.584 1.584 0 0 1 2.973 0l3.246 8.164c.232.583.756.982 1.358 1.032l8.426.707c1.427.12 2.006 1.983.919 2.958l-6.419 5.752a1.73 1.73 0 0 0-.519 1.67l1.961 8.6c.332 1.457-1.183 2.609-2.405 1.828l-7.213-4.609a1.55 1.55 0 0 0-1.679 0l-7.214 4.609c-1.222.781-2.738-.371-2.405-1.828l1.961-8.6a1.73 1.73 0 0 0-.519-1.67l-6.42-5.752c-1.088-.975-.509-2.838.919-2.958l8.426-.707a1.62 1.62 0 0 0 1.358-1.032z"/></symbol><symbol id="Company-Logo" viewBox="0 0 75 32"><path d="m16.441 10.036.012.01.654.544.001 10.078a601 601 0 0 1-6.972 5.669c-.148-.015-4-3.182-5.956-4.791l-.055-.045c-.501-.412-.87-.715-1.006-.825l-.007-10.08 6.965-5.707c.227.032 4.575 3.656 6.364 5.147m-3.008 2.059-.008-.013-.001-.002-.011-.017c-1.145-1.852-3.15-5.096-3.321-5.22l-4.042 6.44.009 4.47.813 1.334q.534.078 1.075.167c.73.118 1.466.237 2.191.297l.967-.145c.747-.113 1.494-.226 2.242-.326l.815-1.266v-4.543c-.097-.153-.369-.592-.729-1.175zm1.031 1.716c.284.356.529.792.765 1.214q.102.183.204.359l.101.172-.136.222-.141.229-.371.595-.43.698q0-.504-.006-1.008a60 60 0 0 1 .014-2.481m-3.225-7.663c-.334-.294-.744-.654-.99-.758l.007.331q.01.39.014.779a698 698 0 0 0 3.884 6.196c0-.063-.003-.162-.006-.284v-.02c-.016-.58-.044-1.635.104-1.79l.013-.012.011-.009.011-.009.13.057c.101.458.076 1.173.055 1.81v.009l-.001.039a16 16 0 0 0-.014.726q.259.43.524.858c.306.496.612.993.896 1.499l-1.418 2.277.003 1.459v1.124l2.352.001-.005-9.697a286 286 0 0 0-5.222-4.288l-.054-.044-.05-.042-.243-.212zm-1.328-.741.034.029c.068.202.049.513.033.783q-.01.15-.013.273l-3.923 6.26q.002-.146.008-.305l.004-.097.008-.19c.02-.473.041-.981-.011-1.379-.015-.111-.048-.152-.134-.217l-.091.017c-.137.213-.098 1.533-.076 2.253l.006.222.003.16q-.706 1.154-1.393 2.32l1.396 2.289-.006 1.309-.005 1.296-2.344-.003.009-9.689c1.397-1.205 2.837-2.367 4.276-3.529q1.116-.897 2.22-1.802zM8.406 19.615a14 14 0 0 0-1.32-.193l.339.544a198 198 0 0 1 2.675 4.378q.657-1.06 1.301-2.129.291-.47.579-.942c.381-.622.763-1.245 1.157-1.859a30 30 0 0 0-.849.139c-.772.133-1.659.286-2.239.271-.545-.015-1.094-.113-1.643-.211zm-2.362-.35.664.096q.67 1.106 1.351 2.206l.002.003.012.02a178 178 0 0 1 1.883 3.1l.001.487q.003.349.01.698l-1.324-1.083-4.997-4.076c.561.008 1.122.006 1.683.004l.71-.001c.013-.484.004-.969.003-1.454zm7.954.022-.025.002-.46.071-3.251 5.291-.013 1.22a156 156 0 0 1 1.42-1.146 313 313 0 0 0 4.895-4.009l-2.4.003q.002-.161.011-.333l.001-.01c.015-.354.03-.728-.041-1.051-.063-.047-.071-.046-.12-.04l-.019.002zM5.76 17.156l-.001.109-.347-.567c-.148-.271-.313-.537-.477-.802l-.218-.354c.203-.381.426-.753.648-1.125l.17-.285.167-.284c.116.177.082 2.004.064 2.938zm8.087 1.81.06-.108c.106-.19.213-.381.35-.55.012.175-.001.413-.032.556a1.4 1.4 0 0 1-.378.102m-7.786-.599c.163.201.283.433.41.658-.047-.006-.068-.007-.089-.011-.04-.008-.078-.024-.289-.091a2.5 2.5 0 0 1-.032-.556"/><path d="m13.433 12.095-.464-.751.456.738zm.721.6c0-.065-.003-.169-.006-.296v.006c.003.124.006.226.006.29m-8.103-.318-.002.07.003-.07zm-.294.84c-.001-.081-.005-.215-.01-.383l.006.222.003.16zm8.41 7.433.01-.274-.001.01-.009.265zm-8.465-6.803-.202.342.035-.058zm.056 3.417c0-.114.005-.371.011-.696l-.004.217zm43.771 7.61v-.667h.677q.348 0 .597-.09.249-.08.418-.289c.169-.209.209-.332.289-.577l1.772-5.695h.727l-1.852 5.904q-.159.508-.438.816-.279.318-.667.458c-.388.14-.554.139-.886.139h-.637zm1.712-2.18v-.627h.946v.627zm-.089 0-1.911-5.137h.767l1.842 5.137zm-5.246.129v-5.266h.597v2.2h-.06q0-1.155.508-1.702.507-.558 1.593-.557h.169v.677h-.309q-.856 0-1.304.448-.448.438-.448 1.294v2.907zm-2.582 0v-7.268h.747v7.268zm-.767-6.66v-.607h1.513v.607zm-3.05 6.829q-.677 0-1.175-.229a2.34 2.34 0 0 1-.816-.627 2.8 2.8 0 0 1-.478-.886q-.15-.488-.149-1.005v-.139q0-.507.149-.996.159-.488.478-.876c.319-.388.478-.465.796-.617a2.56 2.56 0 0 1 1.135-.239q.827 0 1.374.368.557.369.836.946.279.567.279 1.225v.388h-4.709v-.577h4.191l-.189.289q0-.587-.209-1.025a1.54 1.54 0 0 0-.597-.697q-.388-.26-.976-.259-.617 0-1.025.289c-.408.289-.478.448-.617.767q-.2.478-.199 1.085 0 .597.199 1.095.209.488.627.777.428.288 1.075.289.687 0 1.115-.309.427-.318.528-.747h.697a2 2 0 0 1-.418.916q-.318.378-.806.587c-.488.209-.697.209-1.115.209zm-13.566.426q-.677 0-1.175-.229a2.34 2.34 0 0 1-.816-.627 2.8 2.8 0 0 1-.478-.886q-.15-.488-.149-1.005v-.139q0-.507.149-.996.159-.488.478-.876c.319-.388.478-.465.796-.617a2.56 2.56 0 0 1 1.135-.239q.826 0 1.374.368.558.369.836.946.279.567.279 1.225v.388h-4.709v-.577h4.191l-.189.289q0-.587-.209-1.025a1.54 1.54 0 0 0-.597-.697q-.388-.26-.976-.259-.617 0-1.025.289c-.408.289-.478.448-.617.767q-.2.478-.199 1.085 0 .597.199 1.095.209.487.627.777.428.289 1.075.289.687 0 1.115-.309.427-.318.528-.747h.697a2 2 0 0 1-.418.916q-.318.378-.806.587c-.488.209-.697.209-1.115.209zm-6.149 1.852v-.667h.597q.389 0 .587-.229.209-.219.209-.637v-5.754h.717v5.615q0 .617-.169.986-.16.368-.518.528c-.358.16-.557.159-.956.159h-.468zm.538-6.69v-.597h1.573v.597zm.995-1.663q-.268 0-.408-.139-.129-.15-.129-.368c0-.218.043-.266.129-.358q.14-.15.408-.149c.268.001.312.05.398.149q.129.14.129.358c0 .218-.043.269-.129.368q-.13.14-.398.139m48.128-1.981q-.677 0-1.175-.229a2.34 2.34 0 0 1-.816-.627 2.8 2.8 0 0 1-.478-.886 3.4 3.4 0 0 1-.149-1.005v-.139q0-.507.149-.996.159-.487.478-.876c.319-.389.478-.465.796-.617a2.56 2.56 0 0 1 1.135-.239q.826 0 1.374.368.557.369.836.946.279.567.279 1.225v.388h-4.709v-.577h4.191l-.189.289q0-.588-.209-1.025a1.54 1.54 0 0 0-.597-.697q-.389-.26-.975-.259-.617 0-1.025.289c-.408.289-.478.448-.617.767q-.2.478-.199 1.085 0 .597.199 1.095.208.487.627.777.427.288 1.075.289.687 0 1.115-.309.428-.318.527-.747h.697a2 2 0 0 1-.418.916q-.319.378-.807.587c-.488.209-.697.209-1.115.209zm-6.745 0q-.578 0-1.055-.209a2.6 2.6 0 0 1-.816-.597 3 3 0 0 1-.528-.876 3.1 3.1 0 0 1-.179-1.055v-.139q0-.537.179-1.025.179-.498.508-.876.338-.388.806-.607a2.4 2.4 0 0 1 1.065-.229q.667 0 1.175.289c.508.289.611.471.816.836q.309.538.329 1.324l-.329-.617V7.501h.747v7.268h-.597v-2.34h.239q-.02.826-.348 1.394-.318.557-.846.836a2.4 2.4 0 0 1-1.165.279zm.1-.657q.537 0 .966-.239.438-.239.687-.677.249-.449.249-1.025v-.478q0-.558-.249-.976a1.75 1.75 0 0 0-.687-.667 2 2 0 0 0-.976-.239 1.81 1.81 0 0 0-1.692 1.056 2.54 2.54 0 0 0-.229 1.095q0 .627.239 1.115c.239.488.385.581.677.767q.438.269 1.015.269zm-4.624.488v-1.583h-.119v-1.872q0-.587-.309-.896-.309-.319-.956-.319a18 18 0 0 0-1.184.04 9 9 0 0 0-.478.03V9.51l.448-.04q.23-.02.468-.02.249-.01.478-.01.807 0 1.294.199.498.2.727.627.23.418.229 1.115v3.385zm-1.782.139q-.558 0-.986-.199c-.428-.199-.508-.325-.667-.577q-.23-.379-.229-.916 0-.527.239-.896.25-.368.707-.558.468-.2 1.125-.199h1.543v.567h-1.593q-.627 0-.966.309-.329.299-.329.786 0 .498.348.796.349.288.946.289.369 0 .707-.129.339-.14.567-.458.23-.329.249-.896l.219.309q-.04.587-.279.986-.239.389-.647.587c-.408.198-.591.199-.956.199zm-10.899-.139V9.491h.597v2.22h-.119q0-.727.199-1.254.209-.528.617-.816.408-.299 1.035-.299h.03q.627 0 1.035.289c.408.289.475.465.607.816q.2.528.199 1.264h-.239q0-.727.199-1.254.209-.528.617-.816.418-.299 1.045-.299h.03q.627 0 1.035.289.418.289.617.816.209.528.209 1.264v3.056h-.747v-3.226q0-.697-.338-1.105c-.338-.408-.551-.408-.976-.408q-.657 0-1.045.428-.378.418-.378 1.135v3.176h-.747v-3.226q0-.697-.339-1.105c-.339-.408-.551-.408-.976-.408q-.657 0-1.045.428-.378.418-.378 1.135v3.176H45.5zm-4.546.169q-.578 0-1.055-.209a2.6 2.6 0 0 1-.816-.597 3 3 0 0 1-.528-.876 3.1 3.1 0 0 1-.179-1.055v-.139q0-.537.179-1.025.179-.498.508-.876.338-.388.806-.607a2.4 2.4 0 0 1 1.065-.229q.667 0 1.175.289c.508.289.611.471.816.836q.308.538.329 1.324l-.329-.617V7.501h.747v7.268h-.597v-2.34h.239q-.02.826-.348 1.394-.318.557-.846.836a2.4 2.4 0 0 1-1.165.279zm.099-.657q.537 0 .966-.239.438-.239.687-.677.249-.449.249-1.025v-.478q0-.558-.249-.976a1.75 1.75 0 0 0-.687-.667 2 2 0 0 0-.976-.239 1.81 1.81 0 0 0-1.692 1.056 2.54 2.54 0 0 0-.229 1.095q0 .627.239 1.115c.239.488.385.581.677.767q.438.269 1.015.269zm-8.48.488V9.501h.597v2.21h-.119q0-.737.219-1.264c.219-.527.365-.624.657-.816q.438-.289 1.105-.289h.03q.996 0 1.483.627.488.617.488 1.742v3.056h-.737v-3.216q0-.687-.378-1.105c-.378-.418-.604-.418-1.055-.418q-.698 0-1.125.438-.418.428-.418 1.135v3.166zm-2.363 0v-1.583h-.119v-1.872q0-.587-.309-.896-.308-.319-.956-.319a18 18 0 0 0-1.184.04 9 9 0 0 0-.478.03V9.51l.448-.04q.23-.02.468-.02.249-.01.478-.01.807 0 1.294.199.498.2.727.627.23.418.229 1.115v3.385zm-1.782.139q-.557 0-.986-.199c-.429-.199-.508-.325-.667-.577q-.23-.379-.229-.916 0-.527.239-.896.25-.368.707-.558.468-.2 1.125-.199h1.543v.567H28.57q-.627 0-.966.309-.329.299-.329.786 0 .498.348.796.349.288.946.289.369 0 .707-.129.339-.14.567-.458.23-.329.249-.896l.219.309q-.04.587-.279.986-.239.389-.647.587c-.408.198-.591.199-.956.199zm-7.643-.139V7.499h.747v4.112l-.219.169q0-.737.209-1.284.22-.548.647-.846.438-.309 1.095-.309h.04q.955 0 1.444.627.498.627.498 1.742v3.056h-.737V11.55q0-.707-.388-1.115c-.388-.408-.607-.408-1.045-.408q-.706 0-1.125.458-.418.449-.418 1.185v3.096zm10.365 7.9 1.045-4.733h.971l1.211 4.733h-.601l-1.211-4.705h.222l-1.054 4.705zm-.397 0v-.564h.841v.564zm-.166 0-1.414-4.89h.666l1.396 4.89zm3.346 0v-.564h.823v.564zm.361 0 1.22-4.89h.638l-1.248 4.89z"/></symbol></defs></svg>